<svg width="82" height="81" viewBox="0 0 82 81" fill="none" xmlns="http://www.w3.org/2000/svg">
<path fill-rule="evenodd" clip-rule="evenodd" d="M57.6448 15.4543C53.8666 9.25231 48.7374 3.98292 42.6396 0.0388344V12.6798C46.8731 12.8811 51.0027 14.0589 54.7056 16.1211C55.698 15.9217 56.6777 15.6994 57.6448 15.4543ZM39.9251 0.0388344C33.8273 3.98293 28.698 9.25224 24.9197 15.4541C25.886 15.6992 26.866 15.9215 27.8594 16.1211C31.5622 14.0591 35.6917 12.8813 39.9251 12.68V0.0388344ZM23.5316 17.8919C23.1543 18.6024 22.7946 19.3233 22.4526 20.0547C23.1621 19.3935 23.9057 18.77 24.6805 18.1866C24.2959 18.0918 23.9129 17.9936 23.5316 17.8919ZM22.461 60.5261C22.7997 61.2535 23.1564 61.9717 23.5312 62.6807C23.9123 62.5789 24.2954 62.4806 24.6806 62.386C23.9089 61.8049 23.1681 61.1843 22.461 60.5261ZM24.9141 65.1203C28.6845 71.3301 33.8176 76.6014 39.9251 80.5354V67.894C35.6917 67.6926 31.5623 66.5149 27.8596 64.4529C26.8651 64.6527 25.8831 64.8746 24.9141 65.1203ZM35.2442 80.5573C26.938 79.3191 19.2205 75.535 13.1552 69.7266C16.0243 68.1178 19.0607 66.8274 22.2103 65.8783C25.5532 71.5765 29.9815 76.5637 35.2442 80.5573ZM20.879 63.458C19.2602 60.3122 17.9766 57.0048 17.0496 53.5904C15.0282 49.9177 13.8739 45.8311 13.6753 41.6435H0.588013C0.897006 51.3266 4.66169 60.5794 11.2009 67.7275C14.2556 65.9438 17.5022 64.5116 20.879 63.458ZM17.0145 27.0465C17.9462 23.6084 19.2414 20.2794 20.8782 17.1157C17.5017 16.0622 14.2553 14.6299 11.2009 12.8464C4.66178 19.9944 0.897096 29.247 0.588013 38.9299H13.6753C13.8727 34.7668 15.0145 30.7031 17.0145 27.0465ZM22.2145 14.6956C19.0635 13.7463 16.0256 12.4554 13.155 10.846C19.2224 5.03577 26.9431 1.25126 35.2523 0.0144043C29.9961 4.01721 25.568 9.00309 22.2145 14.6956ZM47.3119 0.0144043C55.6212 1.25136 63.342 5.03599 69.4095 10.8463C66.5389 12.4559 63.5011 13.7468 60.35 14.6961C56.9964 9.00359 52.5682 4.01721 47.3119 0.0144043ZM61.6862 17.1156C63.3227 20.2788 64.6178 23.6073 65.5494 27.0448C67.5498 30.7018 68.6919 34.766 68.8894 38.9297H81.9767C81.6675 29.2468 77.9028 19.9943 71.3638 12.8462C68.3092 14.6298 65.0627 16.0619 61.6862 17.1156ZM65.5142 53.5913C64.5873 57.005 63.3039 60.3118 61.6853 63.4572C65.0621 64.511 68.3088 65.9433 71.3636 67.7269C77.9028 60.5789 81.6675 51.3264 81.9767 41.6435H68.8894C68.6903 45.8314 67.5358 49.9183 65.5142 53.5913ZM60.3539 65.8785C63.5035 66.8276 66.54 68.118 69.4093 69.7268C63.344 75.5351 55.6264 79.3192 47.3203 80.5575C52.5831 76.5639 57.011 71.5768 60.3539 65.8785ZM42.6396 80.5354C48.7469 76.6016 53.8799 71.3306 57.6504 65.121C56.6824 64.8753 55.7007 64.6526 54.7054 64.4529C51.0026 66.515 46.8731 67.6927 42.6396 67.894V80.5354ZM59.0331 62.6819C59.4079 61.9732 59.7646 61.255 60.1031 60.5272C59.3963 61.1852 58.6556 61.8059 57.8842 62.3868C58.2688 62.4817 58.6517 62.5803 59.0331 62.6819ZM60.1116 20.0542C59.7698 19.3233 59.4102 18.6026 59.0329 17.8921C58.6522 17.9939 58.2694 18.0921 57.8844 18.1868C58.6588 18.77 59.4022 19.3933 60.1116 20.0542ZM41.2823 25.1054C39.4191 25.1054 37.5977 25.6579 36.0484 26.6931C34.4991 27.7282 33.2916 29.1995 32.5786 30.9209C31.8655 32.6424 31.6789 34.5366 32.0424 36.364C32.4059 38.1915 33.3032 39.8701 34.6207 41.1877C35.9382 42.5052 37.6169 43.4024 39.4443 43.7659C41.2718 44.1294 43.166 43.9428 44.8874 43.2298C46.6088 42.5167 48.0801 41.3092 49.1153 39.76C50.1505 38.2107 50.7029 36.3893 50.7029 34.526C50.7029 33.2889 50.4592 32.0639 49.9858 30.9209C49.5124 29.778 48.8185 28.7394 47.9437 27.8647C47.0689 26.9899 46.0304 26.296 44.8874 25.8225C43.7445 25.3491 42.5195 25.1054 41.2823 25.1054ZM47.2839 32.2562L40.1287 38.7499C40.003 38.8775 39.8534 38.979 39.6883 39.0485C39.5233 39.118 39.3461 39.1541 39.167 39.1548C38.9879 39.1556 38.8104 39.1208 38.6448 39.0526C38.4792 38.9844 38.3288 38.8841 38.2021 38.7575L35.2331 35.7886C34.9847 35.5328 34.8469 35.1896 34.8495 34.8331C34.8521 34.4766 34.9949 34.1354 35.247 33.8833C35.4991 33.6312 35.8402 33.4884 36.1968 33.4858C36.5533 33.4831 36.8965 33.6209 37.1523 33.8693L39.2085 35.9255L45.4601 30.2521C45.5913 30.1305 45.7454 30.0362 45.9133 29.9745C46.0812 29.9128 46.2597 29.8849 46.4385 29.8926C46.6172 29.9002 46.7927 29.9432 46.9547 30.019C47.1168 30.0948 47.2622 30.202 47.3826 30.3343C47.503 30.4666 47.5961 30.6214 47.6563 30.7899C47.7166 30.9583 47.7429 31.1371 47.7337 31.3157C47.7245 31.4944 47.68 31.6695 47.6028 31.8309C47.5256 31.9923 47.4172 32.1369 47.2839 32.2562ZM41.2823 15.3608C36.3524 15.3608 31.5331 16.8227 27.434 19.5617C23.3349 22.3006 20.1401 26.1936 18.2535 30.7483C16.3669 35.303 15.8734 40.3148 16.8352 45.1501C17.797 49.9853 20.1711 54.4267 23.6571 57.9126C27.1432 61.3986 31.5847 63.7725 36.4199 64.7342C41.2551 65.6959 46.267 65.2022 50.8216 63.3155C55.3763 61.4288 59.2691 58.2339 62.008 54.1347C64.7468 50.0355 66.2086 45.2162 66.2085 40.2863C66.2083 33.6756 63.5821 27.3357 58.9075 22.6613C54.233 17.9869 47.893 15.3608 41.2823 15.3608ZM34.5555 59.4676L31.7489 54.6379L26.2462 55.5993L29.8861 47.7813C30.7278 48.1418 31.2875 49.4388 31.8212 50.2548C32.4332 51.1987 33.2964 51.953 34.3137 52.4331C35.331 52.9131 36.462 53.0998 37.5796 52.9722L34.5555 59.4676ZM50.8463 53.0038L47.9009 57.7503L45.8588 53.009C46.8347 52.9784 47.7888 52.7119 48.6394 52.2324C49.49 51.7529 50.2118 51.0745 50.7433 50.2553C51.9838 48.3586 51.5727 48.2555 53.4454 47.4533L56.3186 54.1245L50.8463 53.0038ZM56.876 34.2127C55.0946 37.7369 55.2269 36.9855 55.6955 40.9065C55.7886 41.6294 55.6417 42.3629 55.2772 42.9941C54.9128 43.6253 54.3511 44.1193 53.6785 44.4001C50.0479 45.9548 50.633 45.4643 48.4716 48.7692C48.0783 49.3828 47.4942 49.8502 46.8093 50.0995C46.1244 50.3488 45.3766 50.3661 44.6809 50.1488C40.9008 49.0065 41.6637 49.0065 37.8838 50.1488C37.1881 50.3661 36.4402 50.3487 35.7553 50.0994C35.0704 49.8501 34.4864 49.3827 34.0931 48.769C31.9317 45.4641 32.5161 45.9546 28.8862 44.3999C28.2136 44.1191 27.6519 43.6251 27.2874 42.9939C26.923 42.3627 26.776 41.6293 26.8692 40.9064C27.3378 36.9853 27.4703 37.7367 25.6887 34.2125C25.354 33.565 25.2412 32.8255 25.3678 32.1077C25.4944 31.3899 25.8533 30.7336 26.3894 30.2397C29.2686 27.5373 28.8872 28.1981 29.7879 24.3527C29.9477 23.6416 30.3367 23.0027 30.895 22.5343C31.4534 22.0658 32.1501 21.7938 32.8782 21.76C36.8209 21.5408 36.104 21.8018 39.2653 19.4358C39.8448 18.9936 40.5535 18.7542 41.2823 18.7542C42.0112 18.7542 42.7199 18.9936 43.2994 19.4358C46.4607 21.8021 45.7437 21.5412 49.6865 21.76C50.4146 21.7938 51.1114 22.0659 51.6698 22.5345C52.2281 23.003 52.6171 23.642 52.7768 24.3532C53.6776 28.1979 53.2961 27.5371 56.1754 30.2402C56.7114 30.7341 57.0703 31.3904 57.1968 32.1081C57.3234 32.8258 57.2107 33.5653 56.876 34.2127Z" fill="#1D9BD7"/>
</svg>
