<svg width="95" height="95" viewBox="0 0 95 95" fill="none" xmlns="http://www.w3.org/2000/svg">
<path d="M78.248 44.9112H81.9234V47.8109H78.248C77.4369 47.8109 76.7793 48.4685 76.7793 49.2796V52.955H73.8794V49.2796C73.8794 48.4685 73.2218 47.8109 72.4107 47.8109H68.7355V44.9112H72.4107C73.2218 44.9112 73.8794 44.2536 73.8794 43.4424V39.7671H76.7793V43.4424C76.7793 44.2536 77.4369 44.9112 78.248 44.9112ZM90.108 46.361C90.108 54.5098 83.4784 61.1396 75.3294 61.1396C67.1804 61.1396 60.5509 54.51 60.5509 46.361C60.5509 38.212 67.1804 31.5825 75.3294 31.5825C83.4784 31.5825 90.108 38.212 90.108 46.361ZM84.8609 43.4424C84.8609 42.6313 84.2032 41.9737 83.3921 41.9737H79.7168V38.2983C79.7168 37.4872 79.0591 36.8296 78.248 36.8296H72.4107C71.5995 36.8296 70.9419 37.4872 70.9419 38.2983V41.9737H67.2667C66.4556 41.9737 65.798 42.6313 65.798 43.4424V49.2796C65.798 50.0907 66.4556 50.7484 67.2667 50.7484H70.9419V54.4237C70.9419 55.2348 71.5995 55.8925 72.4107 55.8925H78.248C79.0591 55.8925 79.7168 55.2348 79.7168 54.4237V50.7484H83.3921C84.2032 50.7484 84.8609 50.0907 84.8609 49.2796V43.4424ZM63.9688 88.883C63.9688 89.6941 63.3112 90.3517 62.5001 90.3517H9.64288C8.83177 90.3517 8.17413 89.6941 8.17413 88.883V20.3258C8.17413 19.5147 8.83177 18.857 9.64288 18.857H18.3555V15.5753H8.56115C6.53795 15.5753 4.89185 17.2214 4.89185 19.2448V89.9645C4.89185 91.9879 6.53795 93.6338 8.56115 93.6338H63.5814C65.6048 93.6338 67.2508 91.9877 67.2508 89.9645V62.1251C66.0743 61.5198 64.9746 60.786 63.9688 59.9435V88.883ZM18.3553 25.4438C18.3553 26.2549 19.013 26.9126 19.8241 26.9126H52.3185C53.1296 26.9126 53.7873 26.2549 53.7873 25.4438V21.7945H61.0313V35.9134C58.8836 38.8447 57.6134 42.4569 57.6134 46.361C57.6134 50.2651 58.8836 53.8774 61.0313 56.8086V87.4144H11.1116V21.7945H18.3555V25.4438H18.3553ZM27.1781 66.4232C27.1781 65.6121 26.5205 64.9545 25.7094 64.9545H16.0815C15.2704 64.9545 14.6128 65.6121 14.6128 66.4232V76.0511C14.6128 76.8622 15.2704 77.5198 16.0815 77.5198H25.7094C26.5205 77.5198 27.1781 76.8622 27.1781 76.0511V66.4232ZM27.1781 49.7904C27.1781 48.9793 26.5205 48.3216 25.7094 48.3216H16.0815C15.2704 48.3216 14.6128 48.9793 14.6128 49.7904V59.4182C14.6128 60.2293 15.2704 60.887 16.0815 60.887H25.7094C26.5205 60.887 27.1781 60.2293 27.1781 59.4182V49.7904ZM33.0526 34.0687C33.0526 34.8798 33.7102 35.5374 34.5213 35.5374H56.0616C56.8727 35.5374 57.5304 34.8798 57.5304 34.0687C57.5304 33.2576 56.8727 32.5999 56.0616 32.5999H34.5213C33.7102 32.5999 33.0526 33.2576 33.0526 34.0687ZM33.0526 41.8744C33.0526 42.6855 33.7102 43.3431 34.5213 43.3431H51.982C52.7931 43.3431 53.4507 42.6855 53.4507 41.8744C53.4507 41.0632 52.7931 40.4056 51.982 40.4056H34.5213C33.7102 40.4056 33.0526 41.0632 33.0526 41.8744ZM33.0526 50.7017C33.0526 51.5129 33.7102 52.1705 34.5213 52.1705H51.982C52.7931 52.1705 53.4507 51.5129 53.4507 50.7017C53.4507 49.8906 52.7931 49.233 51.982 49.233H34.5213C33.7102 49.233 33.0526 49.8906 33.0526 50.7017ZM33.0526 58.5074C33.0526 59.3185 33.7102 59.9762 34.5213 59.9762H56.0616C56.8727 59.9762 57.5304 59.3185 57.5304 58.5074C57.5304 57.6963 56.8727 57.0387 56.0616 57.0387H34.5213C33.7102 57.0387 33.0526 57.6963 33.0526 58.5074ZM33.0526 67.3346C33.0526 68.1457 33.7102 68.8033 34.5213 68.8033H51.982C52.7931 68.8033 53.4507 68.1457 53.4507 67.3346C53.4507 66.5235 52.7931 65.8658 51.982 65.8658H34.5213C33.7102 65.8658 33.0526 66.5235 33.0526 67.3346ZM33.0526 75.1403C33.0526 75.9514 33.7102 76.609 34.5213 76.609H56.0616C56.8727 76.609 57.5304 75.9514 57.5304 75.1403C57.5304 74.3291 56.8727 73.6715 56.0616 73.6715H34.5213C33.7102 73.6715 33.0526 74.3291 33.0526 75.1403ZM16.0813 31.6889C15.2702 31.6889 14.6126 32.3466 14.6126 33.1577V42.7855C14.6126 43.5967 15.2702 44.2543 16.0813 44.2543H25.7092C26.5203 44.2543 27.1779 43.5967 27.1779 42.7855V33.1577C27.1779 32.3466 26.5203 31.6889 25.7092 31.6889H16.0813ZM17.5501 57.9496H24.2404V51.2593H17.5501V57.9496ZM17.5501 74.5825H24.2404V67.8922H17.5501V74.5825ZM24.2404 34.6264H17.5501V41.3168H24.2404V34.6264ZM63.9688 20.3258V32.7784C64.9746 31.9359 66.0743 31.2021 67.2508 30.5967V19.2448C67.2508 17.2214 65.6046 15.5753 63.5814 15.5753H53.7873V18.857H62.5001C63.3112 18.857 63.9688 19.5147 63.9688 20.3258ZM50.8498 12.8519H46.1413C45.3302 12.8519 44.6726 12.1942 44.6726 11.3831V8.44653H27.4697V11.3831C27.4697 12.1942 26.812 12.8519 26.0009 12.8519H21.2926V23.9751H50.8496V12.8519H50.8498Z" fill="#1D9BD7"/>
</svg>
