<svg width="151" height="86" viewBox="0 0 151 86" fill="none" xmlns="http://www.w3.org/2000/svg">
<path d="M89.4896 46.1657C91.9412 46.0893 94.326 45.5062 96.1373 44.8228C95.9844 44.7607 95.8721 44.7081 95.755 44.6675C93.7071 43.9243 92.0249 42.7152 90.9161 40.8083C90.4048 39.9314 90.0511 39.0162 89.8217 38.0771H90.8181C91.7453 38.1248 92.1491 37.7306 92.4789 36.9349C94.1516 32.9204 94.5817 28.7578 94.0488 24.4805C93.418 19.417 91.8361 14.7454 88.6891 10.7883C88.6006 10.6545 88.5074 10.523 88.4119 10.3916C87.6878 9.40473 86.8682 8.56361 85.9626 7.84913C84.4333 6.39866 82.7175 5.17521 80.5693 4.8789C79.4654 4.72597 78.3447 4.63039 77.2216 4.57543C77.1284 4.5587 77.0328 4.54437 76.9396 4.53003H74.0697C74.0387 4.5372 74.01 4.54676 73.9789 4.55393C73.3696 4.57304 72.7579 4.60172 72.1533 4.64473C69.4364 4.83828 67.1639 6.0689 65.1853 7.77744C64.1578 8.55166 63.2665 9.44774 62.5449 10.5039C59.2162 14.5518 57.5722 19.3572 56.939 24.5784C56.4157 28.9035 56.841 33.1187 58.6451 37.126C58.8172 37.506 59.3046 38.0149 59.6392 38.0102H61.288C60.423 41.1524 58.528 43.4703 55.2734 44.7009C55.1826 44.7368 55.0942 44.7869 54.8577 44.9016C57.1636 45.6185 59.4169 46.1538 61.5938 46.1896L62.6429 45.922C64.5449 45.5158 66.3873 44.6555 68.1508 43.1549C69.5415 43.941 70.839 44.7272 72.182 45.4226C72.1891 45.4273 72.1987 45.4321 72.2059 45.4345C73.1904 45.9411 74.292 46.1777 75.4007 46.1777H75.5608C76.6409 46.1777 77.7162 45.9531 78.684 45.468C78.6911 45.4656 78.6983 45.4608 78.7055 45.4584C79.9241 44.8467 81.1022 44.1585 82.3161 43.4942C84.211 45.0594 86.5169 45.8312 88.8874 46.0916L89.4896 46.1657ZM88.9423 25.6131C88.9519 25.9883 88.7584 27.1639 88.5194 28.4686C87.4847 34.0769 84.3735 39.1285 79.7258 42.438C79.5777 42.5455 79.4223 42.6531 79.2694 42.7582C76.66 44.5336 74.4473 44.1489 71.6945 42.6985C60.5663 36.8369 63.8185 20.2294 63.8185 20.2294C63.9571 18.9988 64.1841 17.8399 64.4756 16.755C64.6811 15.9999 65.3622 15.4575 66.1436 15.4886C66.1483 15.4909 66.1531 15.4909 66.1603 15.4909C68.8581 15.608 71.5464 15.4312 74.1892 14.829C75.0686 14.6283 75.9145 14.3798 76.7269 14.0763C77.2813 14.4921 77.8572 14.8959 78.445 15.2854C79.9767 16.301 81.5395 17.3094 82.8992 18.5305C84.2708 19.7587 85.4058 21.2474 86.6484 22.6262C87.1119 19.9714 84.8562 18.5424 83.6877 16.6021C85.3365 17.6439 86.6986 18.865 87.6233 20.3704L87.9722 20.9965C88.5122 22.0622 88.8444 23.2642 88.9232 24.643C88.9423 24.9655 88.9471 25.2905 88.9423 25.6131Z" fill="#1D9BD7"/>
<path d="M86.0317 62.0394C85.0376 64.8137 86.4809 67.8675 89.2552 68.8616C92.0295 69.8556 95.0833 68.4099 96.075 65.6357C97.0691 62.8614 95.6258 59.8075 92.8515 58.8159C90.0796 57.8218 87.0258 59.2675 86.0317 62.0394ZM93.4345 64.6918C92.9638 66.006 91.5157 66.6895 90.2039 66.2187C88.8896 65.748 88.2062 64.3023 88.6769 62.988C89.1477 61.6738 90.5934 60.9904 91.9076 61.4611C93.2219 61.9295 93.9053 63.3775 93.4345 64.6918Z" fill="#1D9BD7"/>
<path d="M69.3408 74.0826C68.9919 74.7086 68.5714 75.2558 68.0815 75.7122C68.2511 76.6728 67.6538 77.5928 66.7338 77.7744C65.8042 77.9584 64.22 77.4853 64.0216 76.4769C63.8233 75.4709 65.1065 74.4291 66.036 74.2451C66.2893 74.1949 66.5474 74.2044 66.7959 74.2737C67.6275 73.5043 68.1388 72.3955 68.4017 71.1745L65.7756 63.0595C64.1841 61.2674 61.5795 60.6317 58.2939 61.308L58.2771 61.3104L58.258 61.3127C54.179 62.2805 52.0691 64.7298 52.3152 68.2114C52.3606 68.847 52.0691 69.454 51.5696 69.7981C51.5864 69.9008 51.6055 70.006 51.627 70.1087C52.1312 72.656 53.6581 75.5498 55.9593 76.4028C56.1624 76.2451 56.3989 76.1376 56.6522 76.0874C57.5818 75.9034 59.166 76.3789 59.3644 77.3849C59.5627 78.3909 58.2795 79.4328 57.35 79.6168C56.43 79.7984 55.5244 79.1747 55.3165 78.2213C54.3774 77.8676 53.5052 77.275 52.7214 76.4578C51.2901 74.9619 50.2434 72.8376 49.7751 70.4743C49.7297 70.2425 49.689 70.0084 49.6532 69.7622C49.2231 69.4516 48.9507 68.9617 48.9124 68.4169C48.7428 66.0035 49.3545 63.7788 50.6855 61.9675C50.4633 60.6341 52.2817 57.8455 55.3189 56.4978C55.1994 56.0008 54.6593 53.4463 54.1671 51.1523C53.6677 51.365 53.1682 51.5801 52.6712 51.7975C49.5505 53.1596 47.2684 55.4368 45.6985 58.4596C44.1262 61.4872 43.1273 76.367 42.9505 79.7864C42.8955 80.845 43.0222 81.0266 43.9995 81.4018C44.4631 81.581 44.929 81.7531 45.3998 81.9084C49.6938 83.3182 54.1336 84.0638 58.6117 84.4389C64.2415 84.9097 69.8904 85.151 72.7937 85.3254C72.8558 85.3254 72.9156 85.3254 72.9753 85.3231L69.3408 74.0826Z" fill="#1D9BD7"/>
<path d="M57.7325 55.7982C58.9488 55.6333 60.428 55.7671 61.3957 55.9511C62.3085 56.1757 63.1162 56.5198 63.7853 56.9117L60.9991 48.2974C59.5032 48.9186 58.0049 49.5375 56.5115 50.1636C57.0181 52.5197 57.5987 55.2582 57.7325 55.7982Z" fill="#1D9BD7"/>
<path d="M75.8789 62.3284L63.4915 49.9409L66.4521 59.0953C68.23 60.2686 69.5442 62.0225 70.2682 64.2042C70.3997 64.6056 70.3925 65.0405 70.2444 65.43C70.2037 65.5352 70.1559 65.6356 70.0962 65.7311C70.1559 65.9701 70.2109 66.2067 70.2563 66.436C70.5741 68.049 70.6028 69.662 70.3471 71.1363L74.9303 85.3016C75.3174 85.2968 75.7021 85.2921 76.082 85.2849L87.54 50.0747L75.8789 62.3284Z" fill="#1D9BD7"/>
<path d="M93.0765 57.2725C93.822 55.1912 94.2258 53.1314 94.1876 51.5662C94.1733 50.9115 94.0848 50.3332 93.9247 49.8434C92.6487 49.3153 91.3679 48.7944 90.0871 48.2734L86.7656 58.4769C88.4909 57.1029 90.8374 56.5843 93.0765 57.2725Z" fill="#1D9BD7"/>
<path d="M108.028 79.4858C107.844 76.9385 107.249 62.7924 106.238 60.4506C104.907 57.3704 103.189 54.5699 100.192 52.8255C98.9759 52.1182 97.7142 51.473 96.4263 50.9043C96.474 51.669 96.4549 52.4217 96.4071 53.0884C96.2757 54.9092 95.8575 56.9308 95.3079 58.4505C97.5995 60.2618 98.5123 63.3897 97.5231 66.1545C96.2446 69.7221 92.3043 71.5835 88.7366 70.3075C86.5478 69.5237 85.0018 67.7364 84.4307 65.6479L78.0505 85.2542C85.2503 85.1061 90.9637 84.7548 96.6437 83.9208C100.087 83.4143 103.495 82.7285 106.768 81.4978C108.023 81.0247 108.126 80.8431 108.028 79.4858Z" fill="#1D9BD7"/>
<path d="M27.9821 25.9856L22.3786 28.313C21.9939 28.4731 21.7454 28.8483 21.7454 29.2641V36.5809C21.7454 36.8414 21.8433 37.0899 22.0202 37.281C23.2341 38.6001 28.3334 43.3051 34.6848 37.2834C34.8927 37.0875 35.0122 36.8151 35.0122 36.5307V29.2641C35.0122 28.8483 34.7613 28.4731 34.379 28.313L28.7754 25.9856C28.5198 25.8805 28.2354 25.8805 27.9821 25.9856Z" fill="#1D9BD7"/>
<path d="M41.3159 16.5373V13.3425C41.3159 7.89668 36.9024 4.95752 31.4566 4.95752H24.8781C19.4323 4.95752 15.0188 7.89906 15.0188 13.3425V16.5373C15.0188 16.5373 27.325 18.9795 41.3159 16.5373Z" fill="#1D9BD7"/>
<path d="M19.6381 36.581V31.5366C18.4959 29.8496 18.0299 28.1817 18.1805 26.38L18.1924 26.2366C18.202 26.1147 18.2139 25.9451 18.233 25.8375C18.84 25.6344 19.1984 25.0538 19.2199 24.2341C19.2342 23.6511 19.239 23.0609 19.2438 22.4898C19.2486 21.8541 19.2558 21.2042 19.2749 20.5566C19.2749 20.0811 19.4445 19.6486 19.7241 19.3093C17.3919 19.0751 15.7383 18.8051 15.0095 18.676C14.9784 19.6223 15.0047 20.5686 15.0979 21.5124L15.5615 26.2844C15.6069 26.7527 15.6356 27.2235 15.6666 27.6918C15.822 30.0145 16.8041 32.2057 18.6464 34.3539C18.699 34.4137 18.7492 34.5021 18.7707 34.5762C19.0168 35.3528 19.3083 36.072 19.6476 36.7411C19.6429 36.6885 19.6381 36.636 19.6381 36.581Z" fill="#1D9BD7"/>
<path d="M37.261 19.6822C37.4139 20.0072 37.4856 20.3728 37.5883 20.7097C37.5931 20.7026 37.6003 20.6954 37.605 20.6882C37.6194 21.2426 37.6194 21.8089 37.6194 22.392C37.6194 22.8986 37.617 23.4219 37.6289 23.9452C37.6313 24.0838 37.6313 24.2248 37.6289 24.3753V24.6692C37.6289 25.2523 38.0471 25.7541 38.6206 25.8593C38.6421 25.9668 38.6588 26.1173 38.666 26.1795C38.8691 28.103 38.3745 29.8785 37.1152 31.6922V36.531C37.1152 36.6887 37.0985 36.8417 37.077 36.997C37.433 36.3303 37.7436 35.611 38.0089 34.8273C38.0806 34.6122 38.2192 34.3709 38.3864 34.1701C40.2933 31.857 41.2252 29.5009 41.2228 26.9967C41.2228 26.8246 41.2228 26.6502 41.2252 26.4758L41.2587 18.6858C39.8154 18.9295 38.3912 19.1231 37.0005 19.2736C37.0985 19.3931 37.1893 19.5269 37.261 19.6822Z" fill="#1D9BD7"/>
<path d="M123.682 4.5061H124.36C124.922 4.5061 125.374 4.95773 125.374 5.51689V7.12267H126.979C127.538 7.12267 127.99 7.57669 127.99 8.13345V8.81209C127.99 9.37364 127.536 9.82526 126.979 9.82526H125.374V11.4287C125.374 11.9902 124.92 12.4418 124.36 12.4418H123.682C123.123 12.4418 122.671 11.9878 122.671 11.4287V9.82526H121.065C120.506 9.82526 120.052 9.37125 120.052 8.81209V8.13345C120.052 7.64598 120.401 7.23498 120.862 7.14179C120.929 7.12745 120.996 7.12028 121.065 7.12028H122.671V5.5145C122.671 5.20386 122.81 4.92428 123.032 4.73789C123.209 4.59452 123.436 4.5061 123.682 4.5061Z" fill="#1D9BD7"/>
<path d="M141.193 44.653C139.458 44.0221 138.031 42.9994 137.092 41.3817C136.657 40.6362 136.359 39.8643 136.165 39.0662H137.011C137.797 39.1068 138.139 38.7723 138.418 38.0984C139.835 34.6957 140.201 31.1687 139.749 27.5414C139.214 23.2497 137.874 19.2902 135.207 15.9353C135.133 15.823 135.054 15.7106 134.973 15.6007C134.81 15.3785 134.64 15.1658 134.466 14.9603C133.986 14.3916 133.46 13.8898 132.898 13.443C132.836 13.3856 132.777 13.3283 132.714 13.2733C132.827 13.0272 132.925 12.7691 133.004 12.5015C133.039 12.382 133.078 12.2458 133.123 12.1072L133.13 12.0809C133.142 12.0379 133.157 11.9925 133.171 11.9471L133.178 11.9208C133.728 10.0665 134.657 6.92423 134.741 6.65182C135.235 5.15596 134.996 3.46654 134.117 2.23831C133.319 1.12955 132.115 0.517822 130.724 0.517822H117.333C115.942 0.517822 114.738 1.12716 113.942 2.23592C113.06 3.46415 112.821 5.15118 113.316 6.64943L115.053 12.5086C115.084 12.6114 115.118 12.7141 115.154 12.8145C115.216 12.9889 115.287 13.1562 115.364 13.3211C115.338 13.3426 115.314 13.3641 115.29 13.3856C114.661 13.8563 114.093 14.3844 113.598 14.977C113.404 15.2064 113.223 15.4454 113.051 15.6963C110.229 19.1277 108.836 23.2019 108.298 27.6274C107.853 31.293 108.214 34.8654 109.744 38.2633C109.889 38.5859 110.303 39.0184 110.587 39.0136H111.985C111.251 41.678 109.646 43.6422 106.886 44.6841C106.809 44.7127 106.733 44.7581 106.534 44.8537C108.489 45.463 110.398 45.9171 112.245 45.9457L113.134 45.7187C114.747 45.3746 116.31 44.6434 117.804 43.3722C118.982 44.0389 120.083 44.7056 121.221 45.2958C121.228 45.3006 121.235 45.303 121.242 45.3077C122.079 45.7355 123.01 45.9386 123.95 45.9386H124.086C125.001 45.9386 125.914 45.7474 126.733 45.3388C126.738 45.334 126.745 45.334 126.75 45.3292C127.782 44.8107 128.781 44.2277 129.811 43.6637C131.417 44.9899 133.372 45.6447 135.381 45.8645L135.888 45.929C137.967 45.8645 139.986 45.3699 141.522 44.7892C141.386 44.7319 141.291 44.6888 141.193 44.653ZM115.858 3.61708C116.207 3.132 116.702 2.88349 117.326 2.88349H130.717C131.34 2.88349 131.835 3.12961 132.184 3.61708C132.626 4.23359 132.743 5.13445 132.48 5.91345L132.466 5.95407C132.466 5.95407 131.472 9.30423 130.901 11.2446C130.884 11.3019 130.865 11.3569 130.851 11.4118C130.805 11.5576 130.765 11.6986 130.726 11.8252C130.712 11.8754 130.698 11.9208 130.681 11.9686C130.624 12.1335 130.559 12.2912 130.48 12.4393C129.945 13.4716 128.948 14.0356 127.586 14.069C127.548 14.0714 127.512 14.069 127.472 14.069H120.575C120.184 14.069 119.816 14.026 119.481 13.94C118.203 13.6078 117.636 12.7165 117.385 12.0236C117.383 12.0188 117.383 12.0188 117.381 12.014C117.359 11.9519 117.338 11.885 117.319 11.8252L115.577 5.95407L115.565 5.91345C115.299 5.13206 115.416 4.2312 115.858 3.61708ZM135.417 28.4996C135.424 28.8174 135.262 29.8138 135.059 30.9202C134.182 35.6754 131.544 39.9551 127.606 42.7605C127.479 42.8513 127.35 42.9421 127.218 43.0305C125.008 44.5359 123.132 44.2085 120.798 42.9803C111.366 38.0124 114.121 23.9331 114.121 23.9331C114.238 22.8913 114.432 21.9068 114.678 20.9868C114.852 20.3464 115.431 19.8876 116.093 19.9115C116.097 19.9139 116.1 19.9139 116.107 19.9139C118.394 20.0119 120.671 19.8637 122.912 19.3523C123.658 19.1827 124.375 18.9724 125.063 18.7143C125.534 19.068 126.021 19.4097 126.521 19.7394C127.821 20.5997 129.144 21.4551 130.296 22.4898C131.46 23.5293 132.421 24.791 133.474 25.9619C133.866 23.7109 131.957 22.4994 130.965 20.8554C132.363 21.7371 133.517 22.7718 134.301 24.0502L134.597 24.5807C135.056 25.4839 135.336 26.5043 135.403 27.6704C135.417 27.9524 135.422 28.2272 135.417 28.4996Z" fill="#1D9BD7"/>
<path d="M124.021 60.5509C122.527 60.5509 121.091 60.4123 119.741 60.1638L123.017 80.0378H125.022L128.296 60.1734C126.951 60.4195 125.514 60.5509 124.021 60.5509Z" fill="#1D9BD7"/>
<path d="M139.166 49.4464H138.829C134.872 49.4464 132.946 48.3663 132 46.8298L126.525 80.0375H147.243C148.915 80.0375 150.27 78.6803 150.27 77.01V60.5531C150.27 54.4191 145.298 49.4464 139.166 49.4464ZM140.717 65.1721H134.102V63.4325H140.717V65.1721Z" fill="#1D9BD7"/>
<path d="M42.2597 56.6748C43.8416 53.6281 46.0066 51.2433 48.702 49.5396C46.831 48.2396 44.5537 47.3173 41.8774 46.7653C40.2047 46.4188 37.9561 43.9026 36.9979 41.8547L36.6299 42.1295L28.1685 55.4346L20.0416 42.1224L19.7596 41.8547C18.8014 43.9026 16.5528 46.4188 14.8802 46.7653C7.51792 48.2827 3.09962 52.5098 2.17725 60.1301L0.738737 75.2632C0.693335 76.1616 0.800865 76.317 1.63004 76.6372C2.02193 76.7877 2.4186 76.9359 2.82004 77.0673C6.46651 78.2645 10.2372 78.9001 14.0414 79.2155C18.8205 79.6146 23.6212 79.8201 26.0848 79.9682C31.1053 79.9252 35.2679 79.8129 39.0864 79.5429C39.2513 76.3409 40.1665 60.7084 42.2597 56.6748Z" fill="#1D9BD7"/>
<path d="M109.798 58.9186C110.623 60.8279 111.117 65.3752 111.76 76.9359C111.818 77.9658 111.861 78.7687 111.894 79.2108C111.916 79.4999 111.911 79.7699 111.908 80.0375H121.519L116.045 46.8298C115.098 48.3663 113.172 49.4464 109.215 49.4464H108.878C107.07 49.4464 105.368 49.8885 103.86 50.6531C106.964 53.0738 108.659 56.2734 109.798 58.9186Z" fill="#1D9BD7"/>
</svg>
