<svg width="52" height="40" viewBox="0 0 52 40" fill="none" xmlns="http://www.w3.org/2000/svg">
<path d="M22.0601 10.04C27.5601 10.04 32.0601 14.5305 32.0601 20.0605C32.0653 22.446 31.218 24.755 29.6704 26.5703C28.1227 28.3858 25.9761 29.5878 23.6196 29.96V22.96H25.9497L26.3999 20.0605H23.6196V18.1797C23.6198 17.3898 24.0107 16.6201 25.2505 16.6201H26.5103V14.1504C26.5103 14.1504 25.3698 13.96 24.2798 13.96C21.9901 13.9601 20.5007 15.34 20.5005 17.8496V20.0605H17.9604V22.96H20.5005V29.96C15.7206 29.21 12.0603 25.0603 12.0601 20.0605C12.0601 14.5305 16.5601 10.04 22.0601 10.04Z" fill="white"/>
</svg>
