<svg width="21" height="20" viewBox="0 0 21 20" fill="none" xmlns="http://www.w3.org/2000/svg">
<path d="M10.1201 0.0400391C15.6201 0.0400391 20.1201 4.53055 20.1201 10.0605C20.1254 12.446 19.278 14.755 17.7305 16.5703C16.1827 18.3858 14.0361 19.5878 11.6797 19.96V12.96H14.0098L14.46 10.0605H11.6797V8.17969C11.6798 7.38982 12.0708 6.62012 13.3105 6.62012H14.5703V4.15039C14.5703 4.15039 13.4298 3.95996 12.3398 3.95996C10.0501 3.96007 8.56073 5.34001 8.56055 7.84961V10.0605H6.02051V12.96H8.56055V19.96C3.7807 19.21 0.120346 15.0603 0.120117 10.0605C0.120117 4.53055 4.62012 0.0400391 10.1201 0.0400391Z" fill="#1A1A1A"/>
</svg>
