<svg width="52" height="40" viewBox="0 0 52 40" fill="none" xmlns="http://www.w3.org/2000/svg">
<path d="M26.2603 10C29.4601 10.0001 32.06 12.6 32.0601 15.7998V24.2002C32.06 25.7384 31.4485 27.2131 30.3608 28.3008C29.2732 29.3884 27.7984 29.9999 26.2603 30H17.8599C14.66 29.9999 12.0602 27.4 12.0601 24.2002V15.7998C12.0601 14.2616 12.6716 12.7869 13.7593 11.6992C14.8469 10.6116 16.3217 10.0001 17.8599 10H26.2603ZM17.6597 12C16.705 12.0001 15.7898 12.3796 15.1147 13.0547C14.4397 13.7297 14.0602 14.645 14.0601 15.5996V24.4004C14.0603 26.3901 15.67 27.9998 17.6597 28H26.4604C27.4151 27.9999 28.3303 27.6204 29.0054 26.9453C29.6804 26.2703 30.06 25.355 30.0601 24.4004V15.5996C30.0598 13.6099 28.4501 12.0002 26.4604 12H17.6597ZM22.0601 15C23.3861 15 24.6575 15.5272 25.5952 16.4648C26.5329 17.4025 27.0601 18.6739 27.0601 20C27.0601 21.3261 26.5329 22.5975 25.5952 23.5352C24.6575 24.4728 23.3861 25 22.0601 25C20.734 25 19.4626 24.4728 18.5249 23.5352C17.5872 22.5975 17.0601 21.3261 17.0601 20C17.0601 18.6739 17.5872 17.4025 18.5249 16.4648C19.4626 15.5272 20.734 15 22.0601 15ZM22.0601 17C21.2644 17 20.5016 17.3163 19.939 17.8789C19.3764 18.4415 19.0601 19.2044 19.0601 20C19.0601 20.7956 19.3764 21.5585 19.939 22.1211C20.5016 22.6837 21.2644 23 22.0601 23C22.8557 23 23.6185 22.6837 24.1812 22.1211C24.7438 21.5585 25.0601 20.7956 25.0601 20C25.0601 19.2044 24.7438 18.4415 24.1812 17.8789C23.6185 17.3163 22.8557 17 22.0601 17ZM27.3101 13.5C27.6416 13.5 27.9594 13.6318 28.1938 13.8662C28.4283 14.1006 28.5601 14.4185 28.5601 14.75C28.5601 15.0815 28.4283 15.3994 28.1938 15.6338C27.9594 15.8682 27.6416 16 27.3101 16C26.9785 16 26.6607 15.8682 26.4263 15.6338C26.1918 15.3994 26.0601 15.0815 26.0601 14.75C26.0601 14.4185 26.1918 14.1006 26.4263 13.8662C26.6607 13.6318 26.9785 13.5 27.3101 13.5Z" fill="white"/>
</svg>
