<svg width="21" height="20" viewBox="0 0 21 20" fill="none" xmlns="http://www.w3.org/2000/svg">
<path d="M14.3203 0C17.5202 0.000105376 20.12 2.59996 20.1201 5.7998V14.2002C20.1201 15.7384 19.5086 17.2131 18.4209 18.3008C17.3332 19.3884 15.8585 19.9999 14.3203 20H5.91992C2.72008 19.9999 0.120223 17.4 0.120117 14.2002V5.7998C0.120169 4.26162 0.731671 2.78688 1.81934 1.69922C2.907 0.611554 4.38174 5.17734e-05 5.91992 0H14.3203ZM5.71973 2C4.76509 2.0001 3.84984 2.37965 3.1748 3.05469C2.49977 3.72973 2.12022 4.64497 2.12012 5.59961V14.4004C2.12033 16.3901 3.73004 17.9998 5.71973 18H14.5205C15.4751 17.9999 16.3904 17.6204 17.0654 16.9453C17.7405 16.2703 18.12 15.355 18.1201 14.4004V5.59961C18.1199 3.60992 16.5102 2.00021 14.5205 2H5.71973ZM10.1201 5C11.4462 5 12.7176 5.52716 13.6553 6.46484C14.593 7.40253 15.1201 8.67392 15.1201 10C15.1201 11.3261 14.593 12.5975 13.6553 13.5352C12.7176 14.4728 11.4462 15 10.1201 15C8.79403 15 7.52264 14.4728 6.58496 13.5352C5.64728 12.5975 5.12012 11.3261 5.12012 10C5.12012 8.67392 5.64728 7.40253 6.58496 6.46484C7.52264 5.52716 8.79403 5 10.1201 5ZM10.1201 7C9.32447 7 8.56163 7.3163 7.99902 7.87891C7.43641 8.44151 7.12012 9.20435 7.12012 10C7.12012 10.7956 7.43641 11.5585 7.99902 12.1211C8.56163 12.6837 9.32447 13 10.1201 13C10.9158 13 11.6786 12.6837 12.2412 12.1211C12.8038 11.5585 13.1201 10.7956 13.1201 10C13.1201 9.20435 12.8038 8.44151 12.2412 7.87891C11.6786 7.3163 10.9158 7 10.1201 7ZM15.3701 3.5C15.7016 3.5 16.0195 3.63179 16.2539 3.86621C16.4883 4.10063 16.6201 4.41848 16.6201 4.75C16.6201 5.08152 16.4883 5.39937 16.2539 5.63379C16.0195 5.86821 15.7016 6 15.3701 6C15.0386 6 14.7207 5.86821 14.4863 5.63379C14.2519 5.39937 14.1201 5.08152 14.1201 4.75C14.1201 4.41848 14.2519 4.10063 14.4863 3.86621C14.7207 3.63179 15.0386 3.5 15.3701 3.5Z" fill="#1A1A1A"/>
</svg>
