<svg width="94" height="85" viewBox="0 0 94 85" fill="none" xmlns="http://www.w3.org/2000/svg">
<path d="M0.664795 68.3642H50.3184V42.7446H0.664795V68.3642ZM16.3126 52.0128H21.8285V46.6803H29.1486V52.013H34.6705V59.0909H29.1486V64.4294H21.8285V59.0909H16.3126V52.0128ZM50.3184 37.5092V40.2163H0.664795V37.5092C0.664795 29.8581 6.54069 23.471 14.1474 22.3605H36.8358C44.4427 23.471 50.3184 29.8581 50.3184 37.5092ZM0.664795 70.8872H50.3184V78.7481C50.3142 80.2494 49.6954 81.688 48.5973 82.7496C47.4993 83.8112 46.0112 84.4094 44.4584 84.4136H6.51944C4.96741 84.4083 3.48058 83.8096 2.38364 82.7481C1.2867 81.6866 0.668768 80.2486 0.664795 78.7481L0.664795 70.8872ZM10.4262 11.8333V1.83822C10.4271 1.4883 10.5713 1.15296 10.8272 0.905531C11.0831 0.658099 11.43 0.518703 11.7919 0.517822H15.1534V5.48262C15.1513 5.64953 15.1836 5.81517 15.2482 5.96995C15.3129 6.12473 15.4087 6.26556 15.53 6.38429C15.6514 6.50301 15.7959 6.59728 15.9553 6.66161C16.1146 6.72594 16.2855 6.75907 16.4582 6.75907C16.6308 6.75907 16.8018 6.72594 16.9611 6.66161C17.1204 6.59728 17.2649 6.50301 17.3863 6.38429C17.5077 6.26556 17.6035 6.12473 17.6681 5.96995C17.7328 5.81517 17.765 5.64953 17.763 5.48262V0.517822H21.172V5.48262C21.172 5.64866 21.2058 5.81307 21.2716 5.96647C21.3373 6.11987 21.4336 6.25926 21.5551 6.37667C21.6765 6.49407 21.8207 6.58721 21.9794 6.65075C22.138 6.71429 22.3081 6.74699 22.4798 6.74699C22.6516 6.74699 22.8216 6.71429 22.9803 6.65075C23.139 6.58721 23.2832 6.49407 23.4046 6.37667C23.526 6.25926 23.6224 6.11987 23.6881 5.96647C23.7538 5.81307 23.7876 5.64866 23.7876 5.48262V0.517822H27.1967V5.48262C27.1967 5.81795 27.3345 6.13955 27.5797 6.37667C27.825 6.61378 28.1576 6.74699 28.5045 6.74699C28.8513 6.74699 29.184 6.61378 29.4293 6.37667C29.6745 6.13955 29.8123 5.81795 29.8123 5.48262V0.517822H33.2148V5.48262C33.2148 5.64866 33.2486 5.81307 33.3143 5.96647C33.3801 6.11987 33.4764 6.25926 33.5978 6.37667C33.7193 6.49407 33.8635 6.58721 34.0221 6.65075C34.1808 6.71429 34.3509 6.74699 34.5226 6.74699C34.6944 6.74699 34.8644 6.71429 35.0231 6.65075C35.1818 6.58721 35.3259 6.49407 35.4474 6.37667C35.5688 6.25926 35.6651 6.11987 35.7309 5.96647C35.7966 5.81307 35.8304 5.64866 35.8304 5.48262V0.517822H39.1908C39.5527 0.518703 39.8995 0.658105 40.1554 0.905542C40.4113 1.15298 40.5555 1.48832 40.5563 1.83822V11.8333C40.5544 12.1824 40.4097 12.5166 40.1539 12.763C39.8981 13.0094 39.5519 13.148 39.1908 13.1486H11.7919C11.4308 13.148 11.0846 13.0094 10.8287 12.763C10.5729 12.5166 10.4282 12.1824 10.4262 11.8333ZM14.1474 19.8323V15.6767H36.8358V19.8323H14.1474ZM67.9884 31.0712L71.8421 27.3458L78.8985 34.1679L75.0448 37.893C74.1091 38.7977 72.8399 39.3059 71.5166 39.3059C70.1932 39.3059 68.9241 38.7976 67.9884 37.8929C67.0526 36.9883 66.5269 35.7613 66.527 34.4819C66.527 33.2025 67.0527 31.9755 67.9884 31.0708V31.0712ZM80.7512 32.3814L73.6896 25.5595L77.5487 21.8286C78.4845 20.9239 79.7536 20.4157 81.0769 20.4158C82.4002 20.4158 83.6693 20.924 84.605 21.8287C85.5407 22.7333 86.0664 23.9603 86.0664 25.2396C86.0664 26.519 85.5407 27.746 84.6049 28.6506L80.7512 32.3814ZM56.655 25.8867L64.2089 13.2406C65.5953 14.3592 66.5288 15.9151 66.8447 17.6341C67.1606 19.353 66.8386 21.1245 65.9355 22.6364C65.0324 24.1482 63.6062 25.3033 61.9084 25.8979C60.2106 26.4926 58.3501 26.4886 56.655 25.8867ZM59.2964 48.0569L69.9736 58.3844C68.4973 59.3903 66.7009 59.8599 64.9014 59.7102C63.1019 59.5604 61.415 58.8011 60.1381 57.5661C58.8613 56.3311 58.0767 54.6998 57.9227 52.96C57.7687 51.2202 58.2552 49.4837 59.2964 48.0569ZM71.8211 56.5932L61.1439 46.2706C62.6196 45.2648 64.4153 44.7952 66.2143 44.9446C68.0132 45.094 69.6998 45.8528 70.9765 47.0871C72.2532 48.3214 73.0381 49.952 73.1926 51.6912C73.3471 53.4304 72.8614 55.1665 71.8211 56.5932ZM80.3278 54.71L88.9668 59.5308L86.2408 64.1006C85.5753 65.2007 84.4866 66.0016 83.2124 66.3282C81.9382 66.6549 80.5821 66.4808 79.4402 65.844C78.2983 65.2072 77.4635 64.1595 77.118 62.9296C76.7725 61.6997 76.9445 60.3876 77.5963 59.2798L80.3226 54.7096L80.3278 54.71ZM61.9485 11.9817L54.3999 24.6278C53.0116 23.5104 52.0762 21.9548 51.7589 20.2356C51.4415 18.5163 51.7626 16.7439 52.6656 15.2313C53.5685 13.7187 54.9951 12.5631 56.6936 11.9685C58.3921 11.3739 60.2532 11.3786 61.9485 11.9817ZM93.0005 52.7806L90.2692 57.3506L81.6248 52.5298L84.3563 47.9596C85.0175 46.8514 86.1071 46.0425 87.3852 45.7109C88.6634 45.3793 90.0254 45.5522 91.1717 46.1915C92.318 46.8308 93.1547 47.8841 93.4976 49.1198C93.8406 50.3555 93.6618 51.6723 93.0005 52.7806ZM61.1704 73.4254H66.6227V83.0724H61.1704C60.5127 83.0763 59.8606 82.9544 59.2518 82.7137C58.643 82.473 58.0895 82.1183 57.623 81.67C57.1565 81.2217 56.7863 80.6887 56.5336 80.1016C56.281 79.5144 56.151 78.8848 56.151 78.2489C56.151 77.613 56.281 76.9834 56.5336 76.3963C56.7863 75.8092 57.1565 75.2761 57.623 74.8279C58.0895 74.3796 58.643 74.0249 59.2518 73.7842C59.8606 73.5435 60.5127 73.4216 61.1704 73.4254ZM79.6819 78.2515C79.6766 79.5294 79.1489 80.7534 78.2137 81.6566C77.2785 82.5597 76.0119 83.0687 74.6901 83.0724H69.2378V73.4254H74.6901C76.0127 73.4294 77.28 73.9392 78.2153 74.8435C79.1506 75.7477 79.6778 76.9727 79.6819 78.2515Z" fill="#1D9BD7"/>
</svg>
