<svg width="19" height="18" viewBox="0 0 19 18" fill="none" xmlns="http://www.w3.org/2000/svg">
<path d="M16.1201 0C16.6506 0 17.1591 0.210865 17.5342 0.585938C17.9093 0.96101 18.1201 1.46957 18.1201 2V16C18.1201 16.5304 17.9093 17.039 17.5342 17.4141C17.1591 17.7891 16.6506 18 16.1201 18H2.12012C1.58968 18 1.08113 17.7891 0.706055 17.4141C0.330982 17.039 0.120117 16.5304 0.120117 16V2C0.120117 1.46957 0.330982 0.96101 0.706055 0.585938C1.08113 0.210865 1.58968 0 2.12012 0H16.1201ZM2.62012 15.5H5.38965V7.12988H2.62012V15.5ZM12.3604 6.94043C11.5104 6.94043 10.52 7.46023 10.04 8.24023V7.12988H7.25V15.5H10.04V10.5703C10.04 9.80046 10.6599 9.17016 11.4297 9.16992C11.801 9.16992 12.1574 9.31756 12.4199 9.58008C12.6825 9.84263 12.8301 10.199 12.8301 10.5703V15.5H15.6201V10.2002C15.6201 9.33559 15.2764 8.5059 14.665 7.89453C14.0538 7.28339 13.2247 6.94049 12.3604 6.94043ZM4 2.19043C3.55183 2.19046 3.1216 2.36766 2.80469 2.68457C2.48778 3.00148 2.31058 3.43171 2.31055 3.87988C2.31055 4.80984 3.07005 5.55951 4 5.55957C4.44556 5.55957 4.87342 5.38342 5.18848 5.06836C5.50354 4.7533 5.67969 4.32545 5.67969 3.87988C5.67962 2.94994 4.92996 2.19043 4 2.19043Z" fill="#1A1A1A"/>
</svg>
