<svg width="52" height="40" viewBox="0 0 52 40" fill="none" xmlns="http://www.w3.org/2000/svg">
<path d="M29.0601 11C29.5905 11 30.099 11.2109 30.4741 11.5859C30.8492 11.961 31.0601 12.4696 31.0601 13V27C31.0601 27.5304 30.8492 28.039 30.4741 28.4141C30.099 28.7891 29.5905 29 29.0601 29H15.0601C14.5296 29 14.0211 28.7891 13.646 28.4141C13.2709 28.039 13.0601 27.5304 13.0601 27V13C13.0601 12.4696 13.2709 11.961 13.646 11.5859C14.0211 11.2109 14.5296 11 15.0601 11H29.0601ZM15.5601 26.5H18.3296V18.1299H15.5601V26.5ZM25.3003 17.9404C24.4503 17.9404 23.46 18.4602 22.98 19.2402V18.1299H20.1899V26.5H22.98V21.5703C22.98 20.8005 23.5998 20.1702 24.3696 20.1699C24.7409 20.1699 25.0973 20.3176 25.3599 20.5801C25.6224 20.8426 25.77 21.199 25.77 21.5703V26.5H28.5601V21.2002C28.5601 20.3356 28.2163 19.5059 27.605 18.8945C26.9937 18.2834 26.1647 17.9405 25.3003 17.9404ZM16.9399 13.1904C16.4918 13.1905 16.0615 13.3677 15.7446 13.6846C15.4277 14.0015 15.2505 14.4317 15.2505 14.8799C15.2505 15.8098 16.01 16.5595 16.9399 16.5596C17.3855 16.5596 17.8134 16.3834 18.1284 16.0684C18.4435 15.7533 18.6196 15.3254 18.6196 14.8799C18.6196 13.9499 17.8699 13.1904 16.9399 13.1904Z" fill="white"/>
</svg>
