<svg width="112" height="120" viewBox="0 0 112 120" fill="none" xmlns="http://www.w3.org/2000/svg">
<path d="M112 59.632C112 92.4335 86.9283 119.024 56.0007 119.024C25.073 119.024 0 92.435 0 59.632C0 26.8291 25.0717 0.239838 55.9993 0.239838C86.927 0.239838 111.999 26.8305 111.999 59.632H112ZM44.8232 42.4615H43.181V57.7717C43.181 58.3767 43.6727 59.5617 44.1465 59.9396C44.7472 60.4201 46.964 60.7863 47.3672 60.1696C47.399 60.1213 47.3244 59.0461 47.2871 59.0036C47.2139 58.9216 45.7789 59.1442 45.3301 58.8659C45.1077 58.7282 44.8232 57.7248 44.8232 57.4802V42.4601V42.4615ZM16.0902 57.697L12.5089 43.7169C12.2437 43.2452 11.2314 43.5645 10.7521 43.4781L15.2504 60.2267L16.7089 60.3205L21.0816 45.2168L25.2222 59.9821C25.3051 60.4611 26.7042 60.3835 26.903 60.2443L31.4124 43.4781L29.7758 43.484L26.1448 57.6999L22.239 43.484L20.0747 43.4986L16.0888 57.6985L16.0902 57.697ZM40.7185 54.6517C41.3676 50.7846 39.8636 47.4741 35.7395 47.9912C30.0686 48.7031 29.6598 60.8024 37.227 60.6003C37.6938 60.5886 40.5251 59.9953 40.7143 59.7214C40.8165 59.5734 40.4464 58.6872 40.4436 58.4236C37.0488 59.8825 33.114 59.3698 33.1927 54.6517H40.7185ZM57.1374 48.561C53.4484 47.1621 49.4445 48.0498 48.5523 52.5848C47.5136 57.8567 51.0756 61.6974 56.0711 60.2692C57.1305 59.966 57.1802 59.7346 56.857 58.5759C52.512 60.048 49.7387 58.3327 50.1544 53.2689C50.4762 49.3564 53.9193 48.6914 56.8625 50.0082L57.1374 48.561ZM67.6257 59.0988C70.7733 55.8836 69.5731 48.4336 64.7294 47.978C57.2492 47.2734 56.7714 58.8615 62.6025 60.3923C64.2958 60.8361 66.355 60.3967 67.6257 59.0988ZM71.3671 48.1216V60.3117H73.0093V51.2416C73.0093 51.1742 73.7703 50.4125 73.9015 50.3012C75.5699 48.9023 77.788 49.0034 78.52 51.3456C78.6112 51.6386 78.8929 52.7562 78.8929 52.9818V60.3102H80.5351C80.4301 57.3499 80.7906 54.3294 80.2561 51.413C80.8251 50.8373 81.3168 50.1796 82.0529 49.8032C83.5183 49.0561 85.2793 49.2993 85.9381 51.0248C86.1549 51.5932 86.4187 53.1224 86.4187 53.7083V60.3117H88.0609V52.8382C88.0609 51.7894 87.2722 49.6728 86.5458 48.9316C85.155 47.5122 82.7629 47.7451 81.2312 48.788C80.6442 49.1879 80.3003 49.7065 79.7838 50.1562C78.4952 47.1196 74.7896 47.414 72.9403 49.7182L72.8726 48.1216H71.3671ZM99.5533 54.6517C99.9635 51.7909 99.2839 48.2856 96.0618 47.978C88.4946 47.2558 88.2943 60.7673 95.9223 60.6032C96.3808 60.5929 99.3806 59.9733 99.5533 59.7258C99.614 59.6379 99.2204 58.6799 99.2784 58.4236C95.9319 59.8796 91.8617 59.361 92.0275 54.6502H99.5533V54.6517ZM24.9833 65.1031C18.55 62.5133 11.4717 65.5938 11.9854 73.7323C12.3625 79.697 16.9216 82.3351 22.1616 81.6261C22.6188 81.5646 24.7333 81.1047 24.9239 80.7736L24.5717 78.1604C19.7087 79.9138 15.0074 78.5911 15.3982 72.2763C15.6441 68.3184 18.2848 66.8784 21.7652 67.1333C22.7224 67.2036 23.6298 67.5772 24.5717 67.7119L24.9833 65.1031ZM57.4108 76.1287C58.129 71.8324 56.6319 68.5146 52.1377 68.8662C48.3907 69.1591 46.9239 72.4169 47.1421 76.0628C47.4888 81.8136 53.2882 82.7467 57.4219 80.6813L56.9951 78.4534C54.5519 79.2414 50.6253 79.9167 50.432 76.1287H57.4108ZM29.4982 69.0171H26.4196C26.4044 69.0171 26.2139 69.2192 26.2139 69.2353V76.637C26.2139 77.261 26.718 78.9763 27.0108 79.5652C28.432 82.4113 31.9497 82.2355 33.7383 79.9035C33.7907 80.0734 33.6706 81.3552 33.7383 81.3552H36.8858V69.02H33.6015V77.8001C33.6015 77.9304 32.5436 78.6731 32.3102 78.7522C31.5284 79.0173 30.5824 78.988 30.0644 78.2146C29.86 77.9099 29.4968 76.6824 29.4968 76.3499V69.0215L29.4982 69.0171ZM42.6341 69.0171H39.4865V81.3522H42.7708V73.5887C42.7708 73.5272 43.4794 72.8153 43.6009 72.7274C44.4627 72.1049 45.5911 72.0155 46.6021 72.0653V69.0185C45.3853 68.9922 44.2832 68.8691 43.3841 69.8872L42.6341 71.0502V69.0185V69.0171ZM60.285 69.1635H58.3693V69.4536C58.4881 69.4858 59.1897 69.4111 59.1897 69.4536V72.0653H59.4632V69.4536C59.4632 69.4096 60.1648 69.4858 60.2836 69.4536V69.1635H60.285ZM60.8319 69.1635V72.0653H61.1054V69.7436L61.8664 71.7738L62.1301 72.0668L63.021 69.7436V72.0653C63.1384 72.1254 63.4312 71.9423 63.4312 71.8471V69.1621C63.2585 69.1943 62.858 69.0947 62.7627 69.1797C62.6674 69.2646 62.2683 71.1454 62.1301 71.1938C61.8512 71.2905 61.9465 71.0239 61.8912 70.8744C61.6537 70.2226 61.5957 68.9131 60.8319 69.1621V69.1635Z" fill="#FBDC00"/>
<path d="M60.8318 69.1635C61.5956 68.916 61.6536 70.224 61.8911 70.8759C61.9464 71.0268 61.8511 71.2934 62.13 71.1952C62.2695 71.1469 62.6645 69.2704 62.7626 69.1811C62.8607 69.0917 63.2584 69.1957 63.4311 69.1635V71.8485C63.4311 71.9437 63.1383 72.1268 63.0209 72.0668V69.745L62.13 72.0682L61.8663 71.7753L61.1052 69.745V72.0668H60.8318V69.165V69.1635Z" fill="#1C1C1A"/>
<path d="M60.2848 69.1635V69.4536C60.1661 69.4858 59.4645 69.4111 59.4645 69.4536V72.0653H59.191V69.4536C59.191 69.4096 58.4894 69.4858 58.3706 69.4536V69.1635H60.2848Z" fill="#1C1C1A"/>
<path d="M24.9832 65.1031L24.5716 67.7119C23.6297 67.5771 22.7223 67.2022 21.7652 67.1333C18.2847 66.8799 15.644 68.3183 15.3982 72.2763C15.0059 78.5911 19.7087 79.9138 24.5716 78.1604L24.9238 80.7736C24.7332 81.1047 22.6173 81.5631 22.1616 81.6261C16.9229 82.3351 12.3624 79.6984 11.9854 73.7323C11.4716 65.5938 18.5485 62.5133 24.9832 65.1031Z" fill="#1C1C1A"/>
<path d="M29.498 69.0171V76.3455C29.498 76.678 29.8599 77.9055 30.0657 78.2102C30.5836 78.9836 31.5297 79.0129 32.3114 78.7478C32.5462 78.6687 33.6028 77.926 33.6028 77.7957V69.0156H36.8871V81.3508H33.7395C33.6704 81.3508 33.7906 80.0691 33.7395 79.8991C31.9509 82.2311 28.4332 82.4069 27.012 79.5608C26.7178 78.9734 26.2151 77.2581 26.2151 76.6326V69.2309C26.2151 69.2148 26.4057 69.0127 26.4209 69.0127H29.4994L29.498 69.0171Z" fill="#1C1C1A"/>
<path d="M42.6342 69.0171V71.0488L43.3841 69.8857C44.2832 68.8676 45.3854 68.9907 46.6022 69.0171V72.0639C45.5912 72.0141 44.4628 72.1034 43.601 72.726C43.4794 72.8138 42.7709 73.5257 42.7709 73.5873V81.3508H39.4866V69.0156H42.6342V69.0171Z" fill="#1C1C1A"/>
<path d="M57.4108 76.1287H50.432C50.624 79.9167 54.5505 79.2429 56.9951 78.4534L57.4219 80.6813C53.2882 82.7452 47.4888 81.8136 47.1421 76.0628C46.9225 72.4169 48.3893 69.1591 52.1377 68.8662C56.6333 68.5146 58.129 71.8324 57.4108 76.1287ZM54.4014 73.807C54.8627 70.0834 50.5149 70.4335 50.4334 73.807H54.4014Z" fill="#1C1C1A"/>
<path d="M54.4013 73.807H50.4333C50.5148 70.4335 54.8626 70.0834 54.4013 73.807Z" fill="#FBDC00"/>
<path d="M16.0901 57.697L20.076 43.4971L22.2403 43.4825L26.1461 57.6985L29.7771 43.4825L31.4137 43.4766L26.9044 60.2428C26.7069 60.3835 25.3064 60.4611 25.2235 59.9806L21.0829 45.2154L16.7102 60.319L15.2518 60.2253L10.7534 43.4766C11.2327 43.5631 12.245 43.2437 12.5102 43.7154L16.0915 57.6955L16.0901 57.697Z" fill="#1C1C1A"/>
<path d="M71.3672 48.1215H72.8726L72.9403 49.7167C74.7896 47.4126 78.4952 47.1181 79.7838 50.1547C80.3003 49.7065 80.6442 49.1879 81.2312 48.7866C82.7615 47.7422 85.1536 47.5107 86.5458 48.9301C87.2737 49.6728 88.0609 51.7894 88.0609 52.8368V60.3102H86.4188V53.7069C86.4188 53.1224 86.155 51.5931 85.9381 51.0233C85.2807 49.2978 83.5198 49.0546 82.053 49.8017C81.3168 50.1767 80.8252 50.8344 80.2561 51.4115C80.7906 54.3279 80.4302 57.3484 80.5351 60.3102H78.893V52.9803C78.893 52.7547 78.6126 51.6371 78.5201 51.3441C77.7881 49.0019 75.57 48.9008 73.9016 50.2997C73.769 50.411 73.0094 51.1727 73.0094 51.2401V60.3102H71.3672V48.1201V48.1215Z" fill="#1C1C1A"/>
<path d="M67.6255 59.0988C66.3549 60.3967 64.2956 60.8361 62.6024 60.3923C56.7712 58.8615 57.2491 47.2734 64.7293 47.978C69.5729 48.4336 70.7731 55.8836 67.6255 59.0988ZM63.6755 49.3212C58.9438 49.7812 59.1067 59.3479 64.1851 59.1589C69.1351 58.9758 68.8948 48.8144 63.6755 49.3212Z" fill="#1C1C1A"/>
<path d="M57.1373 48.561L56.8624 50.0082C53.9192 48.6899 50.4761 49.3564 50.1543 53.2689C49.7385 58.3327 52.5118 60.048 56.8569 58.5759C57.1787 59.7346 57.129 59.9675 56.071 60.2692C51.0755 61.6974 47.5149 57.8567 48.5521 52.5848C49.4444 48.0512 53.4483 47.1621 57.1373 48.561Z" fill="#1C1C1A"/>
<path d="M44.8231 42.4615V57.4817C44.8231 57.7278 45.1062 58.7297 45.3299 58.8674C45.7788 59.1457 47.2138 58.9216 47.287 59.0051C47.3243 59.0476 47.3989 60.1227 47.3671 60.1711C46.9652 60.7863 44.7485 60.4216 44.1463 59.9411C43.6726 59.5617 43.1809 58.3781 43.1809 57.7732V42.463H44.8231V42.4615Z" fill="#1C1C1A"/>
<path d="M63.6756 49.3212C68.8935 48.8144 69.1338 58.9758 64.1852 59.1589C59.1068 59.3479 58.9452 49.7812 63.6756 49.3212Z" fill="#FBDC00"/>
<path d="M99.5531 54.6517H92.0273C91.8616 59.361 95.9318 59.8796 99.2783 58.425C99.2202 58.6814 99.6139 59.6408 99.5531 59.7272C99.3791 59.9748 96.3806 60.5944 95.9221 60.6047C88.2941 60.7687 88.4958 47.2573 96.0616 47.9795C99.2838 48.2871 99.9633 51.7924 99.5531 54.6531V54.6517ZM92.0287 53.3451H97.9814C98.3584 53.3451 98.0698 51.7675 97.9869 51.4525C97.7383 50.4975 97.0947 49.5629 96.1417 49.3461C93.6391 48.7763 92.0163 50.8666 92.0287 53.3451Z" fill="#1C1C1A"/>
<path d="M92.0286 53.3451C92.0162 50.8666 93.639 48.7763 96.1416 49.3461C97.0946 49.5629 97.7382 50.4975 97.9868 51.4525C98.0683 51.7675 98.3584 53.3451 97.9813 53.3451H92.0286Z" fill="#FBDC00"/>
<path d="M40.7185 54.6517H33.1928C33.114 59.3698 37.0489 59.884 40.4437 58.4236C40.4465 58.6872 40.8166 59.5734 40.7144 59.7214C40.5252 59.9968 37.6939 60.5885 37.227 60.6003C29.6598 60.8024 30.0686 48.7016 35.7396 47.9912C39.865 47.4741 41.3677 50.7831 40.7185 54.6517ZM33.1928 53.3451H39.1454C39.5363 53.3451 39.2366 51.6371 39.151 51.3075C38.6938 49.5453 37.0503 48.8774 35.4426 49.4194C34.0643 49.8837 33.1541 51.8846 33.1928 53.3465V53.3451Z" fill="#1C1C1A"/>
<path d="M33.1928 53.3451C33.1542 51.8847 34.0643 49.8823 35.4427 49.4179C37.0503 48.8774 38.6939 49.5439 39.151 51.3061C39.2367 51.6356 39.5364 53.3436 39.1455 53.3436H33.1928V53.3451Z" fill="#FBDC00"/>
</svg>
