<svg width="95" height="95" viewBox="0 0 95 95" fill="none" xmlns="http://www.w3.org/2000/svg">
<path d="M95 47.4994C95 73.7327 73.7339 94.9988 47.5006 94.9988C21.2673 94.9988 0 73.7339 0 47.4994C0 21.265 21.2661 0 47.4994 0C73.7327 0 94.9988 21.2661 94.9988 47.4994H95ZM38.0197 33.7672H36.6268V46.0116C36.6268 46.4954 37.0438 47.4432 37.4457 47.7454C37.9553 48.1297 39.8355 48.4226 40.1776 47.9294C40.2045 47.8907 40.1413 47.0308 40.1096 46.9968C40.0475 46.9312 38.8304 47.1093 38.4496 46.8867C38.261 46.7766 38.0197 45.9741 38.0197 45.7785V33.766V33.7672ZM13.6479 45.9519L10.6102 34.7711C10.3853 34.3939 9.52659 34.6493 9.12008 34.5802L12.9356 47.975L14.1727 48.05L17.8817 35.9707L21.3938 47.7794C21.4641 48.1625 22.6508 48.1004 22.8195 47.9891L26.6445 34.5802L25.2563 34.5849L22.1764 45.9542L18.8634 34.5849L17.0277 34.5966L13.6467 45.953L13.6479 45.9519ZM34.538 43.5163C35.0886 40.4236 33.8128 37.776 30.3148 38.1895C25.5046 38.7589 25.1578 48.4354 31.5765 48.2738C31.9724 48.2644 34.374 47.7899 34.5345 47.5709C34.6212 47.4526 34.3072 46.7438 34.3049 46.5329C31.4253 47.6997 28.0878 47.2897 28.1545 43.5163H34.538ZM48.4647 38.6453C45.3357 37.5265 41.9395 38.2364 41.1827 41.8634C40.3018 46.0796 43.323 49.1512 47.5603 48.009C48.4589 47.7665 48.501 47.5814 48.2269 46.6548C44.5414 47.8321 42.189 46.4603 42.5417 42.4104C42.8146 39.2814 45.7351 38.7495 48.2316 39.8027L48.4647 38.6453ZM57.3611 47.073C60.0309 44.5016 59.0129 38.5433 54.9044 38.179C48.5596 37.6155 48.1543 46.8832 53.1003 48.1074C54.5366 48.4624 56.2833 48.1109 57.3611 47.073ZM60.5346 38.2938V48.043H61.9275V40.7891C61.9275 40.7352 62.573 40.126 62.6843 40.037C64.0995 38.9182 65.9809 38.9991 66.6018 40.8723C66.6791 41.1066 66.9181 42.0004 66.9181 42.1808V48.0418H68.311C68.222 45.6742 68.5277 43.2586 68.0744 40.9262C68.557 40.4658 68.9741 39.9398 69.5985 39.6387C70.8414 39.0412 72.3351 39.2357 72.8939 40.6157C73.0778 41.0703 73.3016 42.2933 73.3016 42.7619V48.043H74.6945V42.066C74.6945 41.2272 74.0256 39.5344 73.4094 38.9417C72.2297 37.8065 70.2006 37.9927 68.9015 38.8268C68.4036 39.1467 68.1119 39.5614 67.6737 39.921C66.5807 37.4925 63.4376 37.728 61.869 39.5707L61.8116 38.2938H60.5346ZM84.4425 43.5163C84.7904 41.2284 84.2141 38.425 81.481 38.179C75.0623 37.6015 74.8925 48.4073 81.3626 48.2761C81.7516 48.2679 84.2961 47.7724 84.4425 47.5744C84.494 47.5041 84.1602 46.7379 84.2094 46.5329C81.3708 47.6974 77.9184 47.2827 78.059 43.5152H84.4425V43.5163ZM21.1912 51.8749C15.7343 49.8037 9.73043 52.2674 10.1662 58.7762C10.486 63.5465 14.3532 65.6564 18.7978 65.0894C19.1856 65.0402 20.9791 64.6723 21.1408 64.4076L20.8421 62.3176C16.7172 63.7199 12.7295 62.6621 13.061 57.6118C13.2695 54.4464 15.5094 53.2948 18.4616 53.4986C19.2734 53.5549 20.0431 53.8536 20.8421 53.9614L21.1912 51.8749ZM48.6967 60.6928C49.3059 57.2568 48.036 54.6034 44.2239 54.8845C41.0457 55.1188 39.8015 57.7242 39.9866 60.6401C40.2807 65.2394 45.1998 65.9856 48.7061 64.3338L48.3441 62.5519C46.2717 63.1822 42.9411 63.7223 42.7771 60.6928H48.6967ZM25.0208 55.0052H22.4095C22.3966 55.0052 22.235 55.1668 22.235 55.1797V61.0993C22.235 61.5984 22.6626 62.9702 22.9109 63.4411C24.1164 65.7173 27.1002 65.5767 28.6173 63.7117C28.6618 63.8476 28.5599 64.8727 28.6173 64.8727H31.2871V55.0075H28.5013V62.0295C28.5013 62.1337 27.6039 62.7277 27.4059 62.7909C26.7429 63.003 25.9404 62.9795 25.5011 62.361C25.3277 62.1173 25.0196 61.1356 25.0196 60.8697V55.0087L25.0208 55.0052ZM36.1629 55.0052H33.493V64.8703H36.2788V58.6614C36.2788 58.6122 36.8798 58.0429 36.9829 57.9726C37.7139 57.4747 38.671 57.4032 39.5286 57.4431V55.0064C38.4965 54.9853 37.5616 54.8869 36.799 55.701L36.1629 56.6312V55.0064V55.0052ZM51.1346 55.1223H49.5097V55.3543C49.6104 55.3801 50.2056 55.3203 50.2056 55.3543V57.4431H50.4375V55.3543C50.4375 55.3191 51.0326 55.3801 51.1334 55.3543V55.1223H51.1346ZM51.5985 55.1223V57.4431H51.8304V55.5862L52.4759 57.2099L52.6997 57.4442L53.4553 55.5862V57.4431C53.5549 57.4911 53.8032 57.3447 53.8032 57.2685V55.1212C53.6568 55.1469 53.3171 55.0673 53.2362 55.1352C53.1554 55.2032 52.8168 56.7074 52.6997 56.746C52.463 56.8233 52.5439 56.6101 52.497 56.4906C52.2955 55.9693 52.2463 54.922 51.5985 55.1212V55.1223Z" fill="#FBDC00"/>
<path d="M51.5984 55.1223C52.2462 54.9243 52.2954 55.9704 52.4969 56.4917C52.5438 56.6124 52.463 56.8256 52.6996 56.7471C52.8179 56.7085 53.153 55.2078 53.2361 55.1363C53.3193 55.0649 53.6567 55.148 53.8031 55.1223V57.2696C53.8031 57.3458 53.5548 57.4922 53.4552 57.4442V55.5873L52.6996 57.4453L52.4758 57.211L51.8303 55.5873V57.4442H51.5984V55.1234V55.1223Z" fill="#1C1C1A"/>
<path d="M51.1347 55.1226V55.3545C51.0339 55.3803 50.4388 55.3205 50.4388 55.3545V57.4433H50.2069V55.3545C50.2069 55.3194 49.6117 55.3803 49.511 55.3545V55.1226H51.1347Z" fill="#1C1C1A"/>
<path d="M21.1911 51.8751L20.842 53.9615C20.0431 53.8537 19.2734 53.5538 18.4616 53.4988C15.5094 53.2961 13.2695 54.4465 13.061 57.6119C12.7283 62.6622 16.7172 63.7201 20.842 62.3178L21.1408 64.4077C20.9791 64.6725 19.1844 65.0392 18.7978 65.0896C14.3543 65.6566 10.486 63.5479 10.1662 58.7764C9.7304 52.2675 15.7331 49.8039 21.1911 51.8751Z" fill="#1C1C1A"/>
<path d="M25.0207 55.0055V60.8665C25.0207 61.1324 25.3277 62.1141 25.5022 62.3578C25.9415 62.9763 26.744 62.9997 27.4071 62.7877C27.6062 62.7244 28.5024 62.1305 28.5024 62.0262V55.0043H31.2882V64.8694H28.6184C28.5598 64.8694 28.6617 63.8444 28.6184 63.7085C27.1013 65.5735 24.1175 65.7141 22.912 63.4379C22.6625 62.9681 22.2361 61.5963 22.2361 61.0961V55.1765C22.2361 55.1636 22.3978 55.002 22.4106 55.002H25.0219L25.0207 55.0055Z" fill="#1C1C1A"/>
<path d="M36.1628 55.0051V56.63L36.7989 55.6998C37.5615 54.8856 38.4964 54.984 39.5285 55.0051V57.4418C38.6709 57.402 37.7138 57.4734 36.9828 57.9713C36.8797 58.0416 36.2787 58.611 36.2787 58.6602V64.8691H33.4929V55.0039H36.1628V55.0051Z" fill="#1C1C1A"/>
<path d="M48.6966 60.693H42.7771C42.9399 63.7225 46.2705 63.1836 48.344 62.5521L48.706 64.334C45.1997 65.9846 40.2806 65.2395 39.9866 60.6403C39.8003 57.7244 41.0444 55.119 44.2239 54.8847C48.0371 54.6035 49.3058 57.257 48.6966 60.693ZM46.1439 58.8362C46.5352 55.8582 42.8474 56.1382 42.7782 58.8362H46.1439Z" fill="#1C1C1A"/>
<path d="M46.144 58.8363H42.7783C42.8474 56.1383 46.5353 55.8584 46.144 58.8363Z" fill="#FBDC00"/>
<path d="M13.648 45.9517L17.0289 34.5952L18.8647 34.5835L22.1776 45.9529L25.2575 34.5835L26.6457 34.5788L22.8208 47.9878C22.6533 48.1002 21.4654 48.1623 21.3951 47.7781L17.8829 35.9694L14.174 48.0487L12.9369 47.9737L9.12134 34.5788C9.52785 34.648 10.3866 34.3926 10.6115 34.7698L13.6492 45.9505L13.648 45.9517Z" fill="#1C1C1A"/>
<path d="M60.5347 38.2937H61.8116L61.869 39.5695C63.4376 37.7267 66.5808 37.4912 67.6738 39.9197C68.1119 39.5613 68.4036 39.1465 68.9015 38.8256C70.1995 37.9903 72.2285 37.8052 73.4094 38.9404C74.0268 39.5343 74.6945 41.2271 74.6945 42.0647V48.0417H73.3016V42.7606C73.3016 42.2932 73.0779 41.0701 72.8939 40.6144C72.3363 39.2344 70.8426 39.0399 69.5985 39.6374C68.9741 39.9373 68.5571 40.4633 68.0744 40.9249C68.5278 43.2573 68.222 45.6729 68.311 48.0417H66.9181V42.1795C66.9181 41.9991 66.6803 41.1053 66.6018 40.871C65.9809 38.9978 64.0995 38.9169 62.6844 40.0357C62.5719 40.1247 61.9276 40.7339 61.9276 40.7878V48.0417H60.5347V38.2925V38.2937Z" fill="#1C1C1A"/>
<path d="M57.3611 47.0729C56.2834 48.1109 54.5367 48.4623 53.1004 48.1074C48.1544 46.8832 48.5597 37.6155 54.9045 38.179C59.0129 38.5433 60.031 44.5015 57.3611 47.0729ZM54.0107 39.2532C49.9971 39.6211 50.1354 47.2721 54.4429 47.121C58.6416 46.9745 58.4377 38.8479 54.0107 39.2532Z" fill="#1C1C1A"/>
<path d="M48.4647 38.6453L48.2316 39.8027C45.7352 38.7484 42.8146 39.2814 42.5417 42.4105C42.189 46.4603 44.5414 47.8321 48.2269 46.6548C48.4999 47.5814 48.4577 47.7677 47.5604 48.009C43.3231 49.1512 40.3029 46.0796 41.1827 41.8634C41.9395 38.2376 45.3357 37.5265 48.4647 38.6453Z" fill="#1C1C1A"/>
<path d="M38.0199 33.7671V45.7796C38.0199 45.9764 38.26 46.7777 38.4498 46.8878C38.8305 47.1104 40.0477 46.9312 40.1098 46.9979C40.1414 47.0319 40.2047 47.8918 40.1778 47.9305C39.8368 48.4225 37.9566 48.1308 37.4458 47.7465C37.044 47.4431 36.627 46.4965 36.627 46.0127V33.7683H38.0199V33.7671Z" fill="#1C1C1A"/>
<path d="M54.0108 39.2534C58.4367 38.8481 58.6405 46.9748 54.443 47.1212C50.1355 47.2723 49.9984 39.6213 54.0108 39.2534Z" fill="#FBDC00"/>
<path d="M84.4425 43.5162H78.0591C77.9185 47.2826 81.3709 47.6973 84.2094 46.534C84.1602 46.739 84.4941 47.5063 84.4425 47.5755C84.2949 47.7734 81.7516 48.269 81.3627 48.2772C74.8925 48.4084 75.0636 37.6025 81.481 38.1801C84.2141 38.4261 84.7905 41.2295 84.4425 43.5174V43.5162ZM78.0602 42.4713H83.1094C83.4292 42.4713 83.1843 41.2096 83.1141 40.9577C82.9032 40.1939 82.3573 39.4465 81.5489 39.2731C79.4262 38.8174 78.0497 40.4891 78.0602 42.4713Z" fill="#1C1C1A"/>
<path d="M78.0604 42.4711C78.0498 40.4889 79.4263 38.8172 81.5491 39.2729C82.3574 39.4463 82.9033 40.1937 83.1142 40.9575C83.1833 41.2094 83.4293 42.4711 83.1095 42.4711H78.0604Z" fill="#FBDC00"/>
<path d="M34.538 43.516H28.1545C28.0877 47.2894 31.4253 47.7006 34.3048 46.5326C34.3072 46.7435 34.6211 47.4523 34.5345 47.5706C34.374 47.7908 31.9724 48.2641 31.5764 48.2735C25.1578 48.4351 25.5046 38.7574 30.3147 38.1892C33.814 37.7757 35.0886 40.4221 34.538 43.516ZM28.1545 42.4711H33.2036C33.5352 42.4711 33.281 41.1051 33.2083 40.8415C32.8206 39.4322 31.4265 38.898 30.0629 39.3315C28.8937 39.7028 28.1217 41.3031 28.1545 42.4722V42.4711Z" fill="#1C1C1A"/>
<path d="M28.1546 42.4711C28.1218 41.3031 28.8938 39.7016 30.0629 39.3303C31.4266 38.898 32.8206 39.431 33.2084 40.8403C33.281 41.1039 33.5352 42.4699 33.2037 42.4699H28.1546V42.4711Z" fill="#FBDC00"/>
</svg>
