<svg width="89" height="81" viewBox="0 0 89 81" fill="none" xmlns="http://www.w3.org/2000/svg">
<path d="M57.0712 28.2046C57.0712 28.6859 57.0368 29.6484 57.1399 30.1125H39.0587L38.9727 28.2046H57.0712ZM80.5493 33.5843V73.3562H82.4571V33.5843H80.5493ZM88.6102 13.0968V29.3734C88.6102 30.6453 87.579 31.6765 86.2899 31.6765H72.1102C71.9555 31.6765 71.7837 31.7281 71.629 31.7968L60.9384 37.9328L62.2102 32.8625C62.3821 32.2781 61.8837 31.6593 61.2821 31.6765C60.0446 31.6937 58.9618 30.6109 58.979 29.3734V13.0968C58.979 11.825 60.0102 10.7937 61.2821 10.7937H86.2899C87.579 10.7937 88.6102 11.825 88.6102 13.0968ZM82.3024 20.9859C82.3024 19.2843 80.9274 17.9265 79.243 17.9265H77.1977V15.8812C77.1977 14.1968 75.8227 12.8218 74.1384 12.8218C72.454 12.8218 71.079 14.1968 71.079 15.8812V17.9265H69.0165C67.3149 17.9265 65.9571 19.3015 65.9571 20.9859C65.9571 22.6703 67.3321 24.0453 69.0165 24.0453H71.0618V26.0906C71.0618 27.7921 72.4368 29.15 74.1212 29.15C75.8227 29.15 77.1805 27.775 77.1805 26.0906V24.0453H79.2259C80.9102 24.0281 82.3024 22.6703 82.3024 20.9859ZM79.2259 19.8171H76.2352C75.7196 19.8171 75.2899 19.3875 75.2899 18.8718V15.864C75.2555 14.3515 73.004 14.3343 72.9696 15.864V18.8718C72.9696 19.3875 72.5399 19.8171 72.0243 19.8171H69.0165C68.3805 19.8171 67.8477 20.3328 67.8477 20.9859C67.8477 21.6218 68.3634 22.1375 69.0165 22.1375C73.5884 22.1546 72.9352 21.5359 72.9696 26.0906C72.9696 26.7265 73.4852 27.2593 74.1212 27.2593C74.7571 27.2593 75.2899 26.7437 75.2899 26.0906V23.0828C75.2899 22.5671 75.7196 22.1375 76.2352 22.1375H79.243C80.7555 22.1031 80.7555 19.8515 79.2259 19.8171ZM52.2587 40.2187C51.4509 41.525 50.5227 42.7281 49.4055 43.7937C50.3852 45.014 51.6055 46.0281 52.9634 46.8015C53.8743 47.2828 54.854 47.6953 55.868 47.9359C55.8509 44.9453 54.493 42.0921 52.2587 40.2187ZM46.2259 38.0531C41.3962 37.95 36.9618 42.0234 36.6524 46.8359C42.1524 46.3031 47.7212 44.0171 50.6946 39.1359C49.3024 38.3968 47.7727 38.0703 46.2259 38.0531ZM52.6712 50.3078V48.7609C50.8321 47.8671 49.1993 46.5437 47.9102 44.9624C46.3977 45.8562 44.8509 46.664 43.1837 47.2656C42.9087 47.3687 39.7977 48.2109 39.7977 48.2625V50.3078C39.7977 53.0062 41.1212 55.5499 43.3212 57.0968C47.7555 60.4312 52.8774 54.8453 52.6712 50.3078ZM36.618 60.8609C37.6493 60.4828 38.7665 60.1046 39.7977 59.7093C40.2962 59.5203 40.9321 59.4687 41.4993 59.5374L41.7571 58.2656C38.7837 55.9453 37.6493 52.3015 37.9243 48.6234C37.4946 48.6921 37.0477 48.7265 36.6352 48.7781V60.8609H36.618ZM49.2337 60.3109L49.0446 59.3999C47.2743 60.3281 45.2118 60.3624 43.4587 59.4171L43.2696 60.3281L46.2602 62.064L49.2337 60.3109ZM52.7399 59.7265C52.7571 59.7265 53.7024 60.0531 53.7024 60.0703C54.029 60.1734 55.6618 60.7921 55.9712 60.8953V49.9296C55.5071 49.8093 55.043 49.689 54.5962 49.5515C54.7852 52.9031 53.393 56.1687 50.7805 58.2656L51.0555 59.5718C51.279 59.5203 51.5024 59.5374 51.7259 59.5374C52.0524 59.5374 52.3962 59.5718 52.7399 59.7265ZM52.1899 65.2093L52.2071 65.089L52.4993 61.6515C52.4993 61.6343 52.1727 61.5312 52.1555 61.514L50.4024 64.6421L50.3337 64.7625C50.643 64.8656 51.8634 65.1406 52.1899 65.2093ZM40.3649 61.5312L40.0899 61.6343L40.3649 64.9343L40.3821 65.2265C40.8462 65.1234 41.7915 64.8999 42.2555 64.7968L40.4337 61.514L40.3649 61.5312ZM45.5212 73.3562H47.0337L47.893 65.3296C47.9102 65.2093 47.9446 65.089 48.0134 64.9687C48.3399 64.3843 49.1305 62.9749 49.4571 62.4078C48.718 62.8203 47.2915 63.6968 46.5352 64.075C46.2946 64.1437 46.054 64.1093 45.8134 64.0062L43.1321 62.4593C43.2352 62.6828 44.7305 65.1578 44.6618 65.3296C44.6618 65.3468 44.679 65.3812 44.679 65.3984C44.6618 65.3812 45.5212 73.3562 45.5212 73.3562ZM35.3634 77.0171H57.5352C58.618 77.0171 59.5118 76.2609 59.7352 75.264H33.1634C33.3868 76.2609 34.2977 77.0171 35.3634 77.0171ZM59.5118 65.8281C59.2024 64.3499 57.9649 63.5421 56.6243 63.164C56.5899 63.1468 54.3899 62.3562 54.3555 62.339L54.1493 64.7453L54.0118 66.4812C53.9774 66.8937 53.6337 67.289 53.204 67.3234C52.9462 67.4265 51.6571 67.0312 51.3821 66.9968L49.6805 66.6015C49.5087 68.2859 49.1305 71.6718 48.9587 73.3562H61.179L59.5118 65.8281ZM35.9477 63.1296C34.5727 63.5078 33.3009 64.3156 32.9743 65.7937L31.3243 73.339H43.6134C43.4415 71.7062 43.0462 68.1828 42.8915 66.5843C42.1352 66.7562 40.5024 67.1343 39.7462 67.3062C39.6259 67.3234 39.5055 67.3406 39.3852 67.3062C38.9555 67.2546 38.6118 66.8765 38.5774 66.464C38.5259 65.9312 38.2852 62.7515 38.2337 62.2874C38.1821 62.3218 35.9993 63.1124 35.9477 63.1296ZM11.9368 73.3562V58.4718H10.029V73.3562H11.9368ZM57.5352 78.9249H35.3634C33.2321 78.9249 31.4962 77.3093 31.2555 75.264H7.15867C6.84929 78.0999 8.60242 80.6437 11.593 80.6953H81.2884C84.2446 80.6609 86.0321 78.0999 85.7227 75.264H61.643C61.3852 77.3093 59.6493 78.9249 57.5352 78.9249ZM15.6493 56.5468H2.93054C1.84773 56.5468 0.953979 55.6703 0.953979 54.5874V39.9953C0.953979 38.9125 1.84773 38.0187 2.93054 38.0187H25.3602C26.443 38.0187 27.3368 38.9125 27.3368 39.9953V54.5874C27.354 55.6359 26.4259 56.5812 25.3602 56.564C25.068 56.564 24.793 56.7015 24.604 56.9421C24.4149 57.1656 24.3634 57.4578 24.4321 57.7499C24.793 59.1937 25.154 60.6375 25.5149 62.0812C22.3868 60.2937 19.2415 58.489 16.1134 56.6843C15.9759 56.5984 15.804 56.5468 15.6493 56.5468ZM5.0446 42.3328C5.0446 42.8484 5.47429 43.2781 5.98992 43.2781H13.5868C14.1024 43.2781 14.5321 42.8484 14.5321 42.3328C14.5321 41.8171 14.1024 41.3875 13.5868 41.3875H6.0071C5.47429 41.3703 5.0446 41.8 5.0446 42.3328ZM5.0446 47.1968C5.0446 47.7124 5.47429 48.1421 5.98992 48.1421H22.3524C22.868 48.1421 23.2977 47.7124 23.2977 47.1968C23.2977 46.6812 22.868 46.2515 22.3524 46.2515H6.0071C5.47429 46.2343 5.0446 46.664 5.0446 47.1968ZM6.0071 53.1953H22.3696C23.6071 53.1781 23.6243 51.3218 22.3696 51.2874H6.0071C4.75242 51.3218 4.75242 53.1781 6.0071 53.1953ZM31.5821 28.2046H11.7134C10.7852 28.2046 10.029 28.9609 10.029 29.889V36.1281H11.9368V31.0578C11.9368 30.5421 12.3665 30.1125 12.8821 30.1125H33.129L31.5821 28.2046ZM39.2649 34.839C39.3165 35.75 38.1477 36.1624 37.5805 35.4921L34.7102 32.0031H13.8446V36.1109H25.3602C27.4915 36.1109 29.2274 37.8468 29.2274 39.9781V54.5874C29.2446 56.2374 28.1102 57.8015 26.529 58.2828C26.993 60.1046 27.4571 61.9437 27.904 63.7828C28.0587 64.35 27.5946 64.9687 27.0102 64.9515C26.8384 64.9687 26.6665 64.9171 26.5118 64.8312C22.8852 62.7515 19.018 60.5171 15.4087 58.4546H13.8618V73.339H29.3993L31.1352 65.4156C31.4962 63.6453 32.9571 62.064 34.7274 61.5484V47.6781C34.5555 38.7578 45.0743 32.9312 52.5165 38.0015H52.5337C55.7821 40.1843 57.8102 44.0343 57.8102 48.039C57.9305 47.764 57.879 61.3421 57.879 61.5656C59.6665 62.15 60.9727 63.5937 61.3852 65.3984L63.1212 73.3218H78.6587V33.5843H72.368L59.9587 40.7C59.804 40.7859 59.6321 40.8203 59.4602 40.8203C58.8759 40.8031 58.4118 40.2187 58.5665 39.6343L60.1134 33.4125C59.2884 33.1718 58.5665 32.6562 58.0165 32.0203H39.1274L39.2649 34.839ZM5.88679 19.2156V2.5437C5.88679 1.32339 6.88367 0.309326 8.10398 0.309326H37.7696C38.9899 0.309326 39.9868 1.3062 39.9868 2.5437V19.2156C39.9868 20.4359 38.9899 21.4328 37.7696 21.4328C37.254 21.4156 36.7899 21.8968 36.8243 22.4296L37.0305 27.2937C37.0649 28.4453 37.2024 30.9718 37.2368 32.1062L28.7634 21.8109C28.5743 21.5875 28.3165 21.4671 28.0243 21.4671H8.10398C6.88367 21.4328 5.88679 20.4187 5.88679 19.2156ZM25.1712 9.09214C25.8759 10.6218 27.8696 11.3093 29.3649 10.5187L35.3977 7.54526C36.9618 6.77183 37.5977 4.89839 36.8243 3.35151C36.1368 1.82183 34.1259 1.13433 32.6305 1.92495L26.5977 4.89839C25.0852 5.60308 24.3977 7.57964 25.1712 9.09214ZM16.3368 11.0859C16.3368 11.9281 16.6805 12.7875 17.3509 13.4062L19.8259 15.6749L22.3009 17.9437C22.9196 18.5109 23.7274 18.8031 24.5696 18.7687C27.2852 18.7343 28.6259 15.1078 26.5462 13.3203L24.0712 11.0515L21.5962 8.78276C19.6884 6.92651 16.268 8.43901 16.3368 11.0859ZM8.29304 13.7843C8.0696 17.9265 14.1368 18.3906 14.5321 14.2656C14.6524 12.5984 14.9102 9.22964 15.0305 7.56245C15.2368 3.42026 9.18679 2.97339 8.79148 7.0812C8.67117 8.76558 8.41335 12.1171 8.29304 13.7843ZM34.5727 5.82651C35.5524 5.37964 35.4493 3.86714 34.4352 3.55776C34.1259 3.43745 33.7821 3.47183 33.4899 3.60933L31.3243 4.67495L32.4243 6.89214L34.5727 5.82651ZM27.5946 8.8687C27.904 8.97183 28.2477 8.93745 28.5399 8.79995L30.7055 7.73433L29.6055 5.51714L27.4399 6.58276C26.4774 7.04683 26.5805 8.55933 27.5946 8.8687ZM23.6071 16.5343C24.8102 17.6171 26.443 15.8296 25.2571 14.7125L23.4868 13.0796C23.0743 13.5437 22.2321 14.4546 21.8196 14.9015L23.6071 16.5343ZM20.4274 13.6296L22.0774 11.8078L20.3071 10.175C19.843 9.71089 19.0009 9.76245 18.5712 10.2437C18.1071 10.7421 18.1587 11.5328 18.6399 11.9796L20.4274 13.6296ZM12.968 9.81401L13.1571 7.40776C13.2087 6.73745 12.693 6.13589 12.0227 6.08433C11.3524 6.01558 10.7509 6.56558 10.6993 7.2187L10.5102 9.62495C11.129 9.67651 12.3665 9.76245 12.968 9.81401ZM11.3352 15.2625C11.9884 15.314 12.6071 14.7812 12.6415 14.1281L12.8305 11.7218C12.2118 11.6703 10.9915 11.5843 10.3727 11.5328L10.1837 13.939C10.1493 14.6265 10.6477 15.2109 11.3352 15.2625Z" fill="#1D9BD7"/>
</svg>
