<svg width="84" height="84" viewBox="0 0 84 84" fill="none" xmlns="http://www.w3.org/2000/svg">
<path d="M38.9634 40.2942C38.9733 40.7689 39.0676 41.2385 39.2419 41.6823H47.2995C47.5114 41.1119 47.5915 40.5034 47.5342 39.8998C47.4769 39.2963 47.2836 38.7121 46.9679 38.1884C46.6522 37.6648 46.2217 37.2143 45.7066 36.8686C45.1916 36.523 44.6046 36.2906 43.9867 36.1877C43.3688 36.0848 42.7352 36.114 42.1302 36.2731C41.5253 36.4323 40.9637 36.7175 40.4849 37.1089C40.0062 37.5003 39.6219 37.9883 39.359 38.5386C39.0962 39.0888 38.9611 39.6881 38.9634 40.2942Z" fill="#1D9BD7"/>
<path d="M53.0342 41.6823C53.2147 40.767 53.3108 39.8379 53.3213 38.9062C53.3213 32.0171 48.8115 26.4133 43.2709 26.4133C37.7302 26.4133 33.2205 32.0171 33.2205 38.9062C33.231 39.8379 33.3271 40.767 33.5076 41.6823H36.2571C36.0328 40.6704 36.0454 39.6228 36.294 38.6162C36.5426 37.6097 37.0209 36.6695 37.6938 35.8648C38.3668 35.06 39.2174 34.4108 40.1833 33.9649C41.1493 33.519 42.2062 33.2876 43.2766 33.2876C44.3471 33.2876 45.4039 33.519 46.3699 33.9649C47.3359 34.4108 48.1865 35.06 48.8594 35.8648C49.5324 36.6695 50.0106 37.6097 50.2592 38.6162C50.5078 39.6228 50.5204 40.6704 50.2961 41.6823H53.0342Z" fill="#1D9BD7"/>
<path d="M54.7569 27.8014C54.7569 27.4333 54.6056 27.0802 54.3364 26.8199C54.0671 26.5596 53.7019 26.4133 53.3211 26.4133C52.9795 26.4161 52.6505 26.5379 52.3943 26.7565C52.1382 26.975 51.9723 27.2756 51.927 27.6029C52.3951 28.0984 52.8269 28.6249 53.2192 29.1784C53.414 29.1868 53.6085 29.1577 53.7916 29.0928C53.9746 29.0279 54.1426 28.9286 54.2856 28.8005C54.4286 28.6724 54.5439 28.5181 54.6249 28.3466C54.7058 28.1751 54.7506 27.9898 54.7569 27.8014Z" fill="#1D9BD7"/>
<path d="M67.4896 15.4572C68.1561 15.3611 68.8288 15.3115 69.5026 15.3087C71.1467 15.3117 72.7679 15.6807 74.2406 16.3873C75.8238 15.9676 77.251 15.1214 78.3555 13.9474C79.4601 12.7733 80.1966 11.3198 80.4791 9.75635H76.2938V12.5325H73.4222V9.75635H70.5507V12.5325H67.6792V9.75635H63.4924C63.6988 10.9275 64.1624 12.0423 64.8519 13.0257C65.5414 14.009 66.4408 14.8382 67.4896 15.4572Z" fill="#1D9BD7"/>
<path d="M62.0549 34.7419C62.3926 36.6842 63.4313 38.448 64.9866 39.72C66.542 40.992 68.5132 41.69 70.5504 41.69C72.5876 41.69 74.5589 40.992 76.1142 39.72C77.6695 38.448 78.7082 36.6842 79.0459 34.7419H74.8577V37.5181H71.9862V34.7419H69.1146V37.5181H66.2431V34.7419H62.0549Z" fill="#1D9BD7"/>
<path d="M52.9336 18.0849C51.1626 18.11 49.4452 18.6759 48.0269 19.7016C46.6086 20.7272 45.5621 22.1601 45.0369 23.7955C46.7013 24.0723 48.2808 24.7049 49.6601 25.6472C50.0179 25.0745 50.5137 24.5938 51.1051 24.2462C51.6965 23.8986 52.366 23.6944 53.0567 23.6509C53.7473 23.6074 54.4386 23.7259 55.0717 23.9964C55.7048 24.2668 56.2608 24.6812 56.6925 25.2043C57.1242 25.7273 57.4188 26.3434 57.5511 27.0002C57.6834 27.657 57.6495 28.335 57.4524 28.9764C57.2553 29.6178 56.9007 30.2037 56.4189 30.6841C55.9371 31.1644 55.3423 31.5251 54.6853 31.7354C55.693 33.9999 56.2062 36.4411 56.1928 38.9062C56.1851 39.8361 56.1055 40.7641 55.9545 41.6824H62.9783C61.7498 40.644 60.765 39.3636 60.09 37.9272C59.415 36.4909 59.0653 34.9316 59.0644 33.3539C59.0644 32.9857 59.2157 32.6327 59.4849 32.3724C59.7542 32.112 60.1194 31.9658 60.5002 31.9658H75.3044C76.0873 31.2553 76.7075 30.3942 77.1251 29.4379C77.5428 28.4816 77.7487 27.4513 77.7295 26.4134C77.7773 24.2552 76.9382 22.1668 75.3961 20.6056C73.854 19.0445 71.7346 18.138 69.5025 18.0849C68.1136 17.9926 66.7249 18.2666 65.4845 18.8778C64.2442 19.489 63.1988 20.4144 62.46 21.5551C62.3236 21.7527 62.1389 21.9146 61.9222 22.0266C61.7056 22.1387 61.4637 22.1973 61.218 22.1973C60.9724 22.1973 60.7305 22.1387 60.5138 22.0266C60.2972 21.9146 60.1125 21.7527 59.9761 21.5551C59.2368 20.4148 58.1914 19.4898 56.9511 18.8787C55.7109 18.2675 54.3224 17.9932 52.9336 18.0849ZM69.1148 20.8611C69.9667 20.8611 70.7995 21.1053 71.5078 21.5629C72.2162 22.0204 72.7682 22.6708 73.0943 23.4317C73.4203 24.1927 73.5056 25.03 73.3394 25.8377C73.1732 26.6455 72.7629 27.3875 72.1605 27.9699C71.5582 28.5523 70.7907 28.9489 69.9551 29.1096C69.1196 29.2703 68.2535 29.1878 67.4665 28.8726C66.6794 28.5574 66.0067 28.0237 65.5334 27.3389C65.0601 26.6541 64.8075 25.849 64.8075 25.0253C64.8075 23.9209 65.2613 22.8617 66.0691 22.0808C66.8769 21.2998 67.9724 20.8611 69.1148 20.8611Z" fill="#1D9BD7"/>
<path d="M69.1147 26.4134C69.9077 26.4134 70.5505 25.7919 70.5505 25.0253C70.5505 24.2587 69.9077 23.6372 69.1147 23.6372C68.3218 23.6372 67.679 24.2587 67.679 25.0253C67.679 25.7919 68.3218 26.4134 69.1147 26.4134Z" fill="#1D9BD7"/>
<path d="M29.8061 19.2259C31.1828 19.5413 32.6186 19.5236 33.9866 19.1746C35.3546 18.8255 36.6124 18.1557 37.6488 17.2246C38.6852 16.2934 39.4681 15.1296 39.9283 13.8362C40.3885 12.5428 40.5118 11.1596 40.2872 9.80908H37.5277V12.5325H34.6561V9.80908H31.7846V12.5325H28.913V9.81047H23.279C23.1258 10.7125 23.134 11.6332 23.3034 12.5325C26.2883 13.8619 28.6206 16.2626 29.8061 19.2259Z" fill="#1D9BD7"/>
<path d="M3.29882 59.7276H80.3712C80.5169 58.8088 80.5937 57.881 80.6009 56.9514H3.06909C3.07631 57.881 3.15309 58.8088 3.29882 59.7276Z" fill="#1D9BD7"/>
<path d="M23.17 76.3848H60.5001C64.8262 76.3785 69.035 75.0249 72.503 72.5247C75.9709 70.0245 78.5135 66.5107 79.7539 62.5039H3.91626C5.15667 66.5107 7.69923 70.0245 11.1672 72.5247C14.6351 75.0249 18.844 76.3785 23.17 76.3848Z" fill="#1D9BD7"/>
<path d="M80.6009 51.3992H3.06909V54.1754H80.6009V51.3992Z" fill="#1D9BD7"/>
<path d="M59.0643 79.1609H24.6057V83.3252H59.0643V79.1609Z" fill="#1D9BD7"/>
<path d="M31.7848 22.2491C31.3043 22.2415 30.8248 22.2049 30.349 22.1394C30.349 22.1769 30.349 22.2116 30.349 22.2491C30.3519 23.9736 29.938 25.6748 29.1403 27.2172C28.3426 28.7596 27.1832 30.1005 25.7545 31.1329C26.9516 32.673 27.5576 34.5677 27.4685 36.4923C27.3795 38.4169 26.6009 40.2517 25.2664 41.6824H30.5873C30.4364 40.764 30.3567 39.8361 30.349 38.9062C30.349 30.9635 35.5092 24.4242 42.0764 23.7094C42.5608 21.7729 43.5793 19.9997 45.0235 18.5786C46.4677 17.1574 48.2835 16.1415 50.2776 15.639C50.0372 14.7539 49.5019 13.97 48.7544 13.4085C48.007 12.8469 47.0891 12.5391 46.1425 12.5325H43.1719C42.82 15.2136 41.4699 17.6789 39.374 19.4673C37.2782 21.2557 34.5802 22.2446 31.7848 22.2491Z" fill="#1D9BD7"/>
<path d="M4.37425 26.2135C2.759 27.1512 1.50622 28.5749 0.807824 30.2666C0.10943 31.9583 0.00393532 33.8247 0.5075 35.5799C1.01106 37.3351 2.09592 38.8823 3.59588 39.9845C5.09584 41.0868 6.92819 41.6832 8.81223 41.6824H11.6838V38.1858L5.04332 33.0499L6.83804 30.8817L11.6838 34.6295V30.6763C11.6921 27.7455 11.099 24.8423 9.93899 22.1347C8.77895 19.427 7.07494 16.9687 4.92559 14.902L6.95578 12.9392C8.95212 14.8763 10.6078 17.1156 11.8575 19.5687L14.8583 15.8445L17.1239 17.5491L13.1196 22.5115C13.5923 23.8383 13.9468 25.2017 14.1792 26.5869L19.3953 22.5531L21.19 24.7213L14.5151 29.8837C14.5237 30.1474 14.5553 30.407 14.5553 30.6721V36.4507L19.559 33.5482L21.0379 35.9274L14.5553 39.6919V41.6824H18.8627C20.0367 41.6825 21.1826 41.3347 22.1459 40.6859C23.1093 40.0371 23.8438 39.1184 24.2505 38.0537C24.6573 36.9889 24.7167 35.8292 24.4208 34.7308C24.1249 33.6323 23.488 32.648 22.5957 31.9103C22.4173 31.7628 22.279 31.5753 22.1929 31.3642C22.1069 31.1531 22.0756 30.9248 22.102 30.6993C22.1283 30.4739 22.2115 30.2581 22.3441 30.0709C22.4767 29.8836 22.6548 29.7307 22.8627 29.6255C24.2566 28.9221 25.424 27.8623 26.2377 26.5616C27.0514 25.2609 27.4802 23.7692 27.4773 22.2492C27.4773 17.5588 22.0745 13.9206 17.4269 13.9206C17.1555 13.9192 16.89 13.8435 16.6613 13.7023C16.4326 13.561 16.25 13.36 16.1347 13.1225C15.5463 11.7127 14.5339 10.5059 13.2285 9.65839C11.9231 8.81083 10.3847 8.36141 8.81223 8.36824C6.92819 8.3675 5.09584 8.96392 3.59588 10.0661C2.09592 11.1683 1.01106 12.7155 0.5075 14.4707C0.00393532 16.226 0.10943 18.0924 0.807824 19.7841C1.50622 21.4758 2.759 22.8995 4.37425 23.8371C4.58588 23.9607 4.76093 24.135 4.88243 24.3432C5.00392 24.5513 5.06777 24.7863 5.06777 25.0253C5.06777 25.2644 5.00392 25.4993 4.88243 25.7075C4.76093 25.9157 4.58588 26.09 4.37425 26.2135Z" fill="#1D9BD7"/>
<path d="M81.3188 44.4585H2.35117C1.77999 44.4585 1.23219 44.6779 0.828303 45.0683C0.424413 45.4588 0.19751 45.9884 0.19751 46.5406C0.19751 47.0928 0.424413 47.6225 0.828303 48.0129C1.23219 48.4034 1.77999 48.6228 2.35117 48.6228H81.3188C81.89 48.6228 82.4378 48.4034 82.8417 48.0129C83.2455 47.6225 83.4724 47.0928 83.4724 46.5406C83.4724 45.9884 83.2455 45.4588 82.8417 45.0683C82.4378 44.6779 81.89 44.4585 81.3188 44.4585Z" fill="#1D9BD7"/>
<path d="M54.757 8.36834C55.6089 8.36834 56.4417 8.12411 57.1501 7.66654C57.8584 7.20896 58.4105 6.55859 58.7365 5.79767C59.0625 5.03675 59.1478 4.19945 58.9816 3.39166C58.8154 2.58387 58.4052 1.84187 57.8028 1.25948C57.2004 0.6771 56.4329 0.280492 55.5973 0.119812C54.7618 -0.0408673 53.8958 0.0415992 53.1087 0.356783C52.3216 0.671967 51.6489 1.20571 51.1756 1.89052C50.7023 2.57534 50.4497 3.38046 50.4497 4.20407C50.4497 5.3085 50.9035 6.3677 51.7113 7.14866C52.5191 7.92961 53.6147 8.36834 54.757 8.36834ZM54.757 2.81598C55.041 2.81598 55.3186 2.89739 55.5547 3.04992C55.7908 3.20244 55.9748 3.41923 56.0835 3.67287C56.1922 3.92651 56.2206 4.20561 56.1652 4.47487C56.1098 4.74414 55.9731 4.99147 55.7723 5.1856C55.5715 5.37973 55.3157 5.51193 55.0371 5.56549C54.7586 5.61905 54.4699 5.59156 54.2076 5.4865C53.9452 5.38144 53.721 5.20352 53.5632 4.97525C53.4055 4.74698 53.3213 4.47861 53.3213 4.20407C53.3213 3.83593 53.4725 3.48286 53.7418 3.22254C54.011 2.96222 54.3762 2.81598 54.757 2.81598Z" fill="#1D9BD7"/>
</svg>
