<svg width="85" height="76" viewBox="0 0 85 76" fill="none" xmlns="http://www.w3.org/2000/svg">
<path d="M8.34509 71.0015H24.585V74.2209C24.5837 74.6475 24.4122 75.0562 24.1079 75.3578C23.8036 75.6594 23.3913 75.8294 22.961 75.8307H9.96908C9.53877 75.8294 9.12644 75.6594 8.82217 75.3578C8.51789 75.0562 8.34638 74.6475 8.34509 74.2209V71.0015Z" fill="#1D9BD7"/>
<path d="M60.3127 71.0015H76.5526V74.2209C76.5513 74.6475 76.3798 75.0562 76.0755 75.3578C75.7713 75.6594 75.3589 75.8294 74.9286 75.8307H61.9367C61.5064 75.8294 61.0941 75.6594 60.7898 75.3578C60.4855 75.0562 60.314 74.6475 60.3127 74.2209V71.0015Z" fill="#1D9BD7"/>
<path d="M79.8006 48.4649C79.801 48.7821 79.7383 49.0963 79.616 49.3894C79.4937 49.6826 79.3143 49.9489 79.088 50.1732C78.8617 50.3975 78.593 50.5754 78.2973 50.6966C78.0016 50.8178 77.6846 50.8799 77.3646 50.8795H72.4926C71.8466 50.8795 71.227 50.6251 70.7701 50.1723C70.3133 49.7195 70.0566 49.1053 70.0566 48.4649C70.0566 47.8245 70.3133 47.2103 70.7701 46.7575C71.227 46.3047 71.8466 46.0503 72.4926 46.0503H77.3646C77.6846 46.0499 78.0016 46.112 78.2973 46.2332C78.593 46.3544 78.8617 46.5323 79.088 46.7566C79.3143 46.9809 79.4937 47.2472 79.616 47.5404C79.7383 47.8335 79.801 48.1477 79.8006 48.4649Z" fill="#1D9BD7"/>
<path d="M79.8006 19.4898C79.801 19.807 79.7383 20.1212 79.616 20.4143C79.4937 20.7075 79.3143 20.9738 79.088 21.1981C78.8617 21.4224 78.593 21.6003 78.2973 21.7215C78.0016 21.8427 77.6846 21.9048 77.3646 21.9044H72.4926C71.8466 21.9044 71.227 21.65 70.7701 21.1972C70.3133 20.7444 70.0566 20.1302 70.0566 19.4898C70.0566 18.8494 70.3133 18.2352 70.7701 17.7824C71.227 17.3296 71.8466 17.0752 72.4926 17.0752H77.3646C77.6846 17.0748 78.0016 17.1369 78.2973 17.2581C78.593 17.3793 78.8617 17.5572 79.088 17.7815C79.3143 18.0058 79.4937 18.2721 79.616 18.5653C79.7383 18.8584 79.801 19.1726 79.8006 19.4898Z" fill="#1D9BD7"/>
<path d="M76.5526 0.172607H8.34515C6.19185 0.17338 4.12697 1.02161 2.60435 2.53087C1.08174 4.04013 0.225999 6.0869 0.22522 8.22131V59.733C0.225999 61.8674 1.08174 63.9142 2.60435 65.4234C4.12697 66.9327 6.19185 67.7809 8.34515 67.7817H76.5526C78.7059 67.7809 80.7707 66.9327 82.2934 65.4234C83.816 63.9142 84.6717 61.8674 84.6725 59.733V8.22131C84.6717 6.0869 83.816 4.04013 82.2934 2.53087C80.7707 1.02161 78.7059 0.17338 76.5526 0.172607ZM77.3645 42.8307C78.872 42.8307 80.3178 43.4243 81.3837 44.4809C82.4497 45.5375 83.0485 46.9706 83.0485 48.4648C83.0485 49.9591 82.4497 51.3921 81.3837 52.4487C80.3178 53.5053 78.872 54.0989 77.3645 54.0989H76.5526V54.9038C76.5528 55.7494 76.3849 56.5868 76.0586 57.3681C75.7322 58.1494 75.2537 58.8594 74.6505 59.4573C74.0472 60.0553 73.331 60.5296 72.5428 60.8531C71.7545 61.1766 70.9097 61.343 70.0566 61.3427H14.8411C13.988 61.343 13.1432 61.1766 12.3549 60.8531C11.5667 60.5296 10.8505 60.0553 10.2472 59.4573C9.644 58.8594 9.16552 58.1494 8.83915 57.3681C8.51278 56.5868 8.34492 55.7494 8.34515 54.9038V13.0505C8.34491 12.2049 8.51277 11.3675 8.83913 10.5862C9.1655 9.80484 9.64398 9.09492 10.2472 8.49696C10.8505 7.899 11.5667 7.42472 12.3549 7.10122C13.1432 6.77771 13.988 6.61133 14.8411 6.61157H70.0566C70.9097 6.61133 71.7546 6.77771 72.5428 7.10122C73.331 7.42472 74.0472 7.899 74.6505 8.49696C75.2537 9.09492 75.7322 9.80484 76.0586 10.5862C76.3849 11.3675 76.5528 12.2049 76.5526 13.0505V13.8554H77.3645C78.872 13.8554 80.3178 14.449 81.3837 15.5056C82.4497 16.5622 83.0485 17.9952 83.0485 19.4895C83.0485 20.9837 82.4497 22.4168 81.3837 23.4734C80.3178 24.53 78.872 25.1236 77.3645 25.1236H76.5526V42.8307H77.3645Z" fill="#1D9BD7"/>
<path d="M72.4926 13.8556H73.3046V13.0508C73.3021 12.1977 72.9591 11.3802 72.3505 10.777C71.7419 10.1738 70.9173 9.83379 70.0566 9.8313H14.8411C13.9805 9.83379 13.1558 10.1738 12.5472 10.777C11.9387 11.3802 11.5957 12.1977 11.5931 13.0508V54.904C11.5957 55.7571 11.9387 56.5746 12.5472 57.1778C13.1558 57.781 13.9805 58.121 14.8411 58.1235H70.0566C70.9173 58.121 71.7419 57.781 72.3505 57.1778C72.9591 56.5746 73.3021 55.7571 73.3046 54.904V54.0992H72.4926C70.9851 54.0992 69.5394 53.5056 68.4735 52.449C67.4075 51.3924 66.8087 49.9593 66.8087 48.4651C66.8087 46.9708 67.4075 45.5378 68.4735 44.4812C69.5394 43.4246 70.9851 42.831 72.4926 42.831H73.3046V25.1238H72.4926C70.9851 25.1238 69.5394 24.5302 68.4735 23.4736C67.4075 22.4171 66.8087 20.984 66.8087 19.4897C66.8087 17.9955 67.4075 16.5624 68.4735 15.5058C69.5394 14.4492 70.9851 13.8556 72.4926 13.8556ZM57.0485 38.8388C54.1328 45.1082 49.4376 50.3998 43.5369 54.067C43.2099 54.2669 42.8332 54.3728 42.4489 54.3728C42.0646 54.3728 41.6879 54.2669 41.3608 54.067C35.9207 50.7194 31.5011 45.9688 28.5747 40.3234C25.6484 34.678 24.3254 28.3502 24.7474 22.017C24.7707 21.5526 24.9545 21.1103 25.268 20.7644C25.5815 20.4185 26.0055 20.1901 26.4689 20.1175L27.0372 20.0209C29.3403 19.7181 31.5979 19.1397 33.7605 18.2985C36.4119 17.1379 38.9232 15.6853 41.2471 13.9683C41.5966 13.7172 42.0172 13.582 42.4489 13.582C42.8805 13.582 43.3011 13.7172 43.6506 13.9683C45.9745 15.6853 48.4858 17.1379 51.1372 18.2985C53.2999 19.1398 55.5574 19.7181 57.8605 20.021L58.4289 20.1176C58.8922 20.1902 59.3162 20.4186 59.6297 20.7645C59.9432 21.1104 60.127 21.5527 60.1503 22.0171C60.5007 27.7903 59.4365 33.5618 57.0485 38.8388Z" fill="#1D9BD7"/>
<path d="M56.951 23.1439C54.535 22.8022 52.1688 22.1753 49.9029 21.2766C47.2661 20.1531 44.7656 18.7383 42.4488 17.0591C40.1298 18.7349 37.6297 20.1494 34.9947 21.2766C32.7289 22.1753 30.3627 22.8022 27.9466 23.1439C27.7827 28.0836 28.7604 32.995 30.8049 37.5028C33.3384 42.9722 37.3735 47.6246 42.4488 50.928C47.5241 47.6246 51.5592 42.9722 54.0928 37.5028C56.1373 32.995 57.1149 28.0836 56.951 23.1439ZM49.7405 28.6492L41.3932 38.3881C41.2067 38.6098 40.9732 38.7882 40.7094 38.9106C40.4457 39.033 40.158 39.0964 39.8667 39.0964C39.5754 39.0964 39.2877 39.033 39.0239 38.9106C38.7602 38.7882 38.5267 38.6098 38.3401 38.3881L35.1571 34.7179C34.8772 34.3935 34.7388 33.9721 34.7723 33.5464C34.8058 33.1208 35.0085 32.7258 35.3358 32.4483C35.6632 32.1708 36.0883 32.0335 36.5177 32.0667C36.9471 32.0999 37.3456 32.3008 37.6256 32.6253L39.8667 35.2009L47.2558 26.5565C47.5366 26.2326 47.9353 26.032 48.3648 25.9986C48.7943 25.9652 49.2197 26.1016 49.548 26.3781C49.8763 26.6546 50.0809 27.0487 50.117 27.4743C50.153 27.8999 50.0177 28.3223 49.7405 28.6492Z" fill="#1D9BD7"/>
</svg>
