<svg width="80" height="80" viewBox="0 0 80 80" fill="none" xmlns="http://www.w3.org/2000/svg">
<path d="M0.448975 45.6607C0.448975 46.4122 0.747486 47.1328 1.27884 47.6642C1.81019 48.1956 2.53086 48.4941 3.28231 48.4941H25.5835C27.3878 45.7361 30.0192 43.6205 33.1003 42.4506C31.8033 41.522 30.7396 40.305 29.993 38.8954C29.2464 37.4857 28.8373 35.922 28.7979 34.3274H3.28231C2.53086 34.3274 1.81019 34.6259 1.27884 35.1573C0.747486 35.6886 0.448975 36.4093 0.448975 37.1607V45.6607ZM20.2823 37.1607C21.1229 37.1607 21.9446 37.41 22.6435 37.877C23.3424 38.344 23.8871 39.0077 24.2088 39.7843C24.5305 40.5609 24.6146 41.4154 24.4506 42.2399C24.2867 43.0643 23.8819 43.8216 23.2875 44.4159C22.6931 45.0103 21.9359 45.4151 21.1114 45.5791C20.287 45.7431 19.4325 45.6589 18.6559 45.3372C17.8793 45.0155 17.2156 44.4708 16.7486 43.7719C16.2816 43.073 16.0323 42.2513 16.0323 41.4107C16.0323 40.2836 16.4801 39.2026 17.2771 38.4055C18.0741 37.6085 19.1551 37.1607 20.2823 37.1607ZM8.94897 37.1607C9.78955 37.1607 10.6112 37.41 11.3101 37.877C12.0091 38.344 12.5538 39.0077 12.8755 39.7843C13.1971 40.5609 13.2813 41.4154 13.1173 42.2399C12.9533 43.0643 12.5486 43.8216 11.9542 44.4159C11.3598 45.0103 10.6025 45.4151 9.77811 45.5791C8.95369 45.7431 8.09916 45.6589 7.32257 45.3372C6.54598 45.0155 5.88223 44.4708 5.41523 43.7719C4.94823 43.073 4.69897 42.2513 4.69897 41.4107C4.69897 40.2836 5.14674 39.2026 5.94377 38.4055C6.7408 37.6085 7.82181 37.1607 8.94897 37.1607Z" fill="#1D9BD7"/>
<path d="M65.6157 32.9104V35.7437C65.6143 37.7116 65.1535 39.6521 64.2698 41.4104H67.0323C68.9512 41.3658 70.7741 40.5624 72.1018 39.1763C73.4295 37.7902 74.1537 35.9344 74.1157 34.0154V31.8054C74.1537 29.8864 73.4295 28.0306 72.1018 26.6445C70.7741 25.2584 68.9512 24.455 67.0323 24.4104C65.6902 24.412 64.3785 24.8108 63.2626 25.5565C64.7934 27.703 65.616 30.2739 65.6157 32.9104Z" fill="#1D9BD7"/>
<path d="M40.1157 79.6606H65.6157C66.3671 79.6606 67.0878 79.3621 67.6192 78.8307C68.1505 78.2994 68.449 77.5787 68.449 76.8272V64.0772C68.449 59.9443 66.8072 55.9806 63.8848 53.0581C60.9623 50.1357 56.9986 48.4939 52.8657 48.4939C48.7327 48.4939 44.769 50.1357 41.8466 53.0581C38.9242 55.9806 37.2823 59.9443 37.2823 64.0772V76.8272C37.2823 77.5787 37.5809 78.2994 38.1122 78.8307C38.6436 79.3621 39.3642 79.6606 40.1157 79.6606Z" fill="#1D9BD7"/>
<path d="M42.4688 25.5565C41.3528 24.8108 40.0412 24.412 38.699 24.4104C36.7802 24.455 34.9572 25.2584 33.6295 26.6445C32.3018 28.0306 31.5777 29.8864 31.6157 31.8054V34.0154C31.5777 35.9344 32.3018 37.7902 33.6295 39.1763C34.9572 40.5624 36.7802 41.3658 38.699 41.4104H41.4615C40.5778 39.6521 40.117 37.7116 40.1157 35.7437V32.9104C40.1153 30.2739 40.9379 27.703 42.4688 25.5565Z" fill="#1D9BD7"/>
<path d="M28.074 73.9939H34.449V64.0772C34.4557 60.3062 35.619 56.6281 37.7819 53.539C39.9448 50.4499 43.0032 48.0986 46.5445 46.8024C45.3634 46.1228 44.2984 45.2592 43.3896 44.2439H38.699C35.3525 44.2141 32.1307 45.5128 29.7405 47.8552C27.3503 50.1976 25.9867 53.3925 25.949 56.7389V71.9397C25.959 72.4937 26.1884 73.0211 26.5868 73.4062C26.9851 73.7913 27.52 74.0026 28.074 73.9939Z" fill="#1D9BD7"/>
<path d="M62.7823 35.7439V32.9106C62.7823 30.2805 61.7375 27.7582 59.8778 25.8984C58.0181 24.0387 55.4957 22.9939 52.8656 22.9939C50.2356 22.9939 47.7132 24.0387 45.8535 25.8984C43.9938 27.7582 42.949 30.2805 42.949 32.9106V35.7439C42.949 38.374 43.9938 40.8963 45.8535 42.756C47.7132 44.6158 50.2356 45.6606 52.8656 45.6606C55.4957 45.6606 58.0181 44.6158 59.8778 42.756C61.7375 40.8963 62.7823 38.374 62.7823 35.7439Z" fill="#1D9BD7"/>
<path d="M8.94902 25.8272C9.73142 25.8272 10.3657 25.193 10.3657 24.4106C10.3657 23.6282 9.73142 22.9939 8.94902 22.9939C8.16661 22.9939 7.53235 23.6282 7.53235 24.4106C7.53235 25.193 8.16661 25.8272 8.94902 25.8272Z" fill="#1D9BD7"/>
<path d="M0.448975 11.6607C0.448975 12.4122 0.747486 13.1328 1.27884 13.6642C1.81019 14.1955 2.53086 14.4941 3.28231 14.4941H54.2823C55.0338 14.4941 55.7544 14.1955 56.2858 13.6642C56.8171 13.1328 57.1156 12.4122 57.1156 11.6607V3.16073C57.1156 2.40928 56.8171 1.68861 56.2858 1.15726C55.7544 0.625904 55.0338 0.327393 54.2823 0.327393H3.28231C2.53086 0.327393 1.81019 0.625904 1.27884 1.15726C0.747486 1.68861 0.448975 2.40928 0.448975 3.16073V11.6607ZM33.0323 5.99406H51.449C51.8247 5.99406 52.185 6.14332 52.4507 6.40899C52.7164 6.67467 52.8656 7.035 52.8656 7.41073C52.8656 7.78645 52.7164 8.14678 52.4507 8.41246C52.185 8.67814 51.8247 8.82739 51.449 8.82739H33.0323C32.6566 8.82739 32.2963 8.67814 32.0306 8.41246C31.7649 8.14678 31.6156 7.78645 31.6156 7.41073C31.6156 7.035 31.7649 6.67467 32.0306 6.40899C32.2963 6.14332 32.6566 5.99406 33.0323 5.99406ZM20.2823 3.16073C21.1229 3.16073 21.9446 3.40998 22.6435 3.87698C23.3424 4.34398 23.8871 5.00774 24.2088 5.78432C24.5305 6.56091 24.6146 7.41544 24.4506 8.23986C24.2867 9.06428 23.8819 9.82156 23.2875 10.4159C22.6931 11.0103 21.9359 11.4151 21.1114 11.5791C20.287 11.7431 19.4325 11.6589 18.6559 11.3372C17.8793 11.0155 17.2156 10.4708 16.7486 9.7719C16.2816 9.07299 16.0323 8.2513 16.0323 7.41073C16.0323 6.28356 16.4801 5.20255 17.2771 4.40552C18.0741 3.60849 19.1551 3.16073 20.2823 3.16073ZM8.94897 3.16073C9.78955 3.16073 10.6112 3.40998 11.3101 3.87698C12.0091 4.34398 12.5538 5.00774 12.8755 5.78432C13.1971 6.56091 13.2813 7.41544 13.1173 8.23986C12.9533 9.06428 12.5486 9.82156 11.9542 10.4159C11.3598 11.0103 10.6025 11.4151 9.77811 11.5791C8.95369 11.7431 8.09916 11.6589 7.32257 11.3372C6.54598 11.0155 5.88223 10.4708 5.41523 9.7719C4.94823 9.07299 4.69897 8.2513 4.69897 7.41073C4.69897 6.28356 5.14674 5.20255 5.94377 4.40552C6.7408 3.60849 7.82181 3.16073 8.94897 3.16073Z" fill="#1D9BD7"/>
<path d="M20.2824 25.8272C21.0648 25.8272 21.6991 25.193 21.6991 24.4106C21.6991 23.6282 21.0648 22.9939 20.2824 22.9939C19.5 22.9939 18.8657 23.6282 18.8657 24.4106C18.8657 25.193 19.5 25.8272 20.2824 25.8272Z" fill="#1D9BD7"/>
<path d="M8.94902 42.8272C9.73142 42.8272 10.3657 42.193 10.3657 41.4106C10.3657 40.6282 9.73142 39.9939 8.94902 39.9939C8.16661 39.9939 7.53235 40.6282 7.53235 41.4106C7.53235 42.193 8.16661 42.8272 8.94902 42.8272Z" fill="#1D9BD7"/>
<path d="M67.0323 44.2439H62.3417C61.4328 45.2592 60.3678 46.1228 59.1868 46.8024C62.728 48.0986 65.7864 50.4499 67.9493 53.539C70.1122 56.6281 71.2755 60.3062 71.2823 64.0772V73.9939H77.6573C78.2113 74.0026 78.7461 73.7913 79.1445 73.4062C79.5428 73.0211 79.7722 72.4937 79.7823 71.9397V56.7389C79.7445 53.3925 78.381 50.1976 75.9907 47.8552C73.6005 45.5128 70.3788 44.2141 67.0323 44.2439Z" fill="#1D9BD7"/>
<path d="M0.448975 28.6607C0.448975 29.4122 0.747486 30.1328 1.27884 30.6642C1.81019 31.1955 2.53086 31.4941 3.28231 31.4941H28.7979C28.8373 28.879 29.8926 26.3818 31.7405 24.5309C33.5884 22.6801 36.0839 21.6209 38.699 21.5774C40.7368 21.5802 42.721 22.23 44.3656 23.4332C46.0617 21.8949 48.1442 20.847 50.3901 20.4015C52.6361 19.9561 54.9609 20.1299 57.1156 20.9045V20.1607C57.1156 19.4093 56.8171 18.6886 56.2858 18.1573C55.7544 17.6259 55.0338 17.3274 54.2823 17.3274H3.28231C2.53086 17.3274 1.81019 17.6259 1.27884 18.1573C0.747486 18.6886 0.448975 19.4093 0.448975 20.1607V28.6607ZM20.2823 20.1607C21.1229 20.1607 21.9446 20.41 22.6435 20.877C23.3424 21.344 23.8871 22.0077 24.2088 22.7843C24.5305 23.5609 24.6146 24.4154 24.4506 25.2399C24.2867 26.0643 23.8819 26.8216 23.2875 27.4159C22.6931 28.0103 21.9359 28.4151 21.1114 28.5791C20.287 28.7431 19.4325 28.6589 18.6559 28.3372C17.8793 28.0155 17.2156 27.4708 16.7486 26.7719C16.2816 26.073 16.0323 25.2513 16.0323 24.4107C16.0323 23.2836 16.4801 22.2026 17.2771 21.4055C18.0741 20.6085 19.1551 20.1607 20.2823 20.1607ZM8.94897 20.1607C9.78955 20.1607 10.6112 20.41 11.3101 20.877C12.0091 21.344 12.5538 22.0077 12.8755 22.7843C13.1971 23.5609 13.2813 24.4154 13.1173 25.2399C12.9533 26.0643 12.5486 26.8216 11.9542 27.4159C11.3598 28.0103 10.6025 28.4151 9.77811 28.5791C8.95369 28.7431 8.09916 28.6589 7.32257 28.3372C6.54598 28.0155 5.88223 27.4708 5.41523 26.7719C4.94823 26.073 4.69897 25.2513 4.69897 24.4107C4.69897 23.2836 5.14674 22.2026 5.94377 21.4055C6.7408 20.6085 7.82181 20.1607 8.94897 20.1607Z" fill="#1D9BD7"/>
<path d="M20.2824 42.8272C21.0648 42.8272 21.6991 42.193 21.6991 41.4106C21.6991 40.6282 21.0648 39.9939 20.2824 39.9939C19.5 39.9939 18.8657 40.6282 18.8657 41.4106C18.8657 42.193 19.5 42.8272 20.2824 42.8272Z" fill="#1D9BD7"/>
<path d="M8.94902 8.82723C9.73142 8.82723 10.3657 8.19297 10.3657 7.41056C10.3657 6.62816 9.73142 5.9939 8.94902 5.9939C8.16661 5.9939 7.53235 6.62816 7.53235 7.41056C7.53235 8.19297 8.16661 8.82723 8.94902 8.82723Z" fill="#1D9BD7"/>
<path d="M20.2824 8.82723C21.0648 8.82723 21.6991 8.19297 21.6991 7.41056C21.6991 6.62816 21.0648 5.9939 20.2824 5.9939C19.5 5.9939 18.8657 6.62816 18.8657 7.41056C18.8657 8.19297 19.5 8.82723 20.2824 8.82723Z" fill="#1D9BD7"/>
</svg>
