<svg width="52" height="40" viewBox="0 0 52 40" fill="none" xmlns="http://www.w3.org/2000/svg">
<path d="M22.0601 13C26.2501 13 28.8601 13.1604 29.8901 13.4404C30.79 13.6904 31.3696 14.2701 31.6196 15.1699C31.7496 15.6399 31.8399 16.2703 31.8999 17.0703C31.9699 17.8702 32.0005 18.5602 32.0005 19.1602L32.0601 20C32.0601 22.19 31.8996 23.8001 31.6196 24.8301C31.3696 25.7299 30.79 26.3096 29.8901 26.5596C29.4201 26.6896 28.5597 26.7798 27.2397 26.8398C25.9399 26.9098 24.7498 26.9404 23.6499 26.9404L22.0601 27C17.8701 27 15.26 26.8396 14.23 26.5596C13.3301 26.3096 12.7505 25.7299 12.5005 24.8301C12.3705 24.3601 12.2802 23.7297 12.2202 22.9297C12.1502 22.1298 12.1196 21.4398 12.1196 20.8398L12.0601 20C12.0601 17.81 12.2205 16.1999 12.5005 15.1699C12.7505 14.2701 13.3301 13.6904 14.23 13.4404C14.7 13.3104 15.5604 13.2202 16.8804 13.1602C18.1803 13.0902 19.3703 13.0596 20.4702 13.0596L22.0601 13ZM20.0601 23L25.2505 20L20.0601 17V23Z" fill="white"/>
</svg>
