<svg width="21" height="14" viewBox="0 0 21 14" fill="none" xmlns="http://www.w3.org/2000/svg">
<path d="M8.12012 10L13.3101 7L8.12012 4V10ZM19.6801 2.17C19.8101 2.64 19.9001 3.27 19.9601 4.07C20.0301 4.87 20.0601 5.56 20.0601 6.16L20.1201 7C20.1201 9.19 19.9601 10.8 19.6801 11.83C19.4301 12.73 18.8501 13.31 17.9501 13.56C17.4801 13.69 16.6201 13.78 15.3001 13.84C14.0001 13.91 12.8101 13.94 11.7101 13.94L10.1201 14C5.93012 14 3.32012 13.84 2.29012 13.56C1.39012 13.31 0.810117 12.73 0.560117 11.83C0.430117 11.36 0.340117 10.73 0.280117 9.93C0.210117 9.13 0.180117 8.44 0.180117 7.84L0.120117 7C0.120117 4.81 0.280117 3.2 0.560117 2.17C0.810117 1.27 1.39012 0.69 2.29012 0.44C2.76012 0.31 3.62012 0.22 4.94012 0.16C6.24012 0.0899998 7.43012 0.0599999 8.53012 0.0599999L10.1201 0C14.3101 0 16.9201 0.16 17.9501 0.44C18.8501 0.69 19.4301 1.27 19.6801 2.17Z" fill="#1A1A1A"/>
</svg>
